<?xml version="1.0" standalone="no"?>
<!DOCTYPE svg PUBLIC "-//W3C//DTD SVG 20010904//EN"
 "http://www.w3.org/TR/2001/REC-SVG-20010904/DTD/svg10.dtd">
<svg version="1.0" xmlns="http://www.w3.org/2000/svg"
 width="855.000000pt" height="871.000000pt" viewBox="0 0 855.000000 871.000000"
 preserveAspectRatio="xMidYMid meet">

<g transform="translate(0.000000,871.000000) scale(0.100000,-0.100000)"
fill="#000000" stroke="none">
<path d="M3855 8240 c-818 -91 -1528 -433 -2086 -1007 -533 -547 -850 -1220
-941 -1998 -16 -142 -16 -568 0 -710 90 -769 409 -1450 930 -1987 569 -586
1294 -936 2111 -1018 133 -13 499 -13 632 0 1119 112 2089 747 2633 1721 217
389 345 794 408 1284 19 153 16 579 -6 750 -69 546 -244 1020 -541 1470 -480
724 -1229 1241 -2075 1429 -250 55 -374 68 -690 71 -162 2 -331 0 -375 -5z
m-200 -1060 c405 -26 624 -110 736 -282 21 -34 47 -85 56 -114 l17 -54 155 0
c386 -1 703 -94 1008 -296 470 -312 763 -884 763 -1489 l0 -97 -45 40 c-62 54
-164 106 -269 136 -118 35 -116 35 -116 -20 0 -40 -2 -45 -17 -39 -165 69
-208 75 -630 82 l-363 6 0 -931 0 -930 40 10 c33 9 51 25 110 98 39 49 101
116 138 150 74 68 451 354 458 348 5 -6 -105 -167 -159 -232 -39 -47 -40 -49
-12 -32 17 11 131 78 254 148 123 71 240 140 259 153 20 14 38 23 40 20 9 -9
-118 -165 -204 -252 -193 -194 -451 -349 -704 -424 -41 -12 -82 -28 -92 -36
-23 -20 -83 -146 -103 -218 -14 -49 -18 -116 -22 -355 l-5 -295 153 -130 152
-130 -236 -3 c-129 -1 -345 -1 -479 0 l-242 3 152 130 152 130 0 412 0 413
-697 2 -697 3 176 150 177 150 0 432 1 432 -57 6 c-111 11 -189 28 -273 58
-104 36 -155 61 -243 120 l-67 45 0 -64 0 -63 153 -133 154 -133 -238 -3
c-131 -1 -348 -1 -482 0 l-244 3 151 130 151 130 0 305 0 305 -32 85 c-55 147
-68 233 -68 440 0 209 13 292 71 446 l34 92 0 440 0 440 -137 118 c-76 64
-147 125 -158 135 -19 19 -3 19 600 19 341 0 692 -5 780 -10z m2380 -2291 c76
-85 110 -209 103 -375 -3 -73 -8 -98 -22 -112 -16 -16 -18 -16 -41 10 -48 56
-87 199 -105 385 -14 152 -14 156 8 144 10 -6 36 -29 57 -52z m411 -131 c38
-74 54 -153 54 -263 0 -174 -50 -299 -172 -430 -61 -66 -204 -185 -221 -185
-4 0 7 24 24 53 126 213 222 510 244 752 3 39 8 90 11 115 6 42 7 43 21 25 8
-11 26 -41 39 -67z"/>
<path d="M2920 6806 c0 -185 2 -336 5 -336 2 0 35 20 72 44 138 89 285 148
461 187 82 18 141 22 373 26 l276 5 -9 52 c-13 74 -60 168 -108 216 -23 23
-70 55 -104 71 -119 56 -166 61 -583 66 l-383 5 0 -336z"/>
<path d="M3980 6448 l0 -233 20 25 c29 37 80 163 96 239 7 36 14 96 14 134 l0
67 -65 0 -65 0 0 -232z"/>
<path d="M4473 6588 c-1 -252 -123 -434 -425 -636 l-68 -45 0 -743 c0 -409 2
-744 5 -744 15 0 139 69 202 112 112 77 288 271 319 351 3 10 -31 46 -106 111
l-110 95 156 3 157 3 23 60 c12 33 38 121 56 195 30 121 33 130 36 90 5 -67
-20 -221 -54 -332 -5 -17 24 -18 503 -18 455 0 580 -5 747 -27 l49 -6 -7 74
c-62 686 -339 1189 -779 1419 -171 90 -351 130 -578 130 l-126 0 0 -92z"/>
<path d="M3450 6644 c-155 -33 -328 -108 -457 -197 l-73 -49 0 -177 0 -177 30
-55 c16 -30 36 -84 44 -119 18 -76 21 -233 5 -279 -13 -37 -41 -41 -63 -9 -15
21 -16 3 -16 -212 l0 -235 45 90 c84 171 206 303 453 488 l142 108 0 419 0
420 -22 -1 c-13 0 -52 -7 -88 -15z"/>
<path d="M2540 5778 c-42 -176 -36 -454 14 -608 13 -41 14 -12 15 328 1 204
-1 372 -3 372 -2 0 -14 -42 -26 -92z"/>
<path d="M3425 5581 c-220 -144 -349 -274 -424 -426 -62 -125 -72 -175 -78
-395 l-5 -195 59 -43 c81 -60 243 -138 338 -163 44 -11 117 -23 163 -26 l82
-6 0 667 c0 366 -4 666 -8 666 -4 0 -62 -35 -127 -79z"/>
<path d="M4503 4781 c-111 -163 -254 -289 -428 -378 l-95 -48 0 -602 0 -603
310 0 310 0 0 839 0 839 -23 14 c-21 15 -24 13 -74 -61z"/>
<path d="M5384 3441 c-75 -53 -172 -138 -139 -122 43 20 230 169 214 171 -3 0
-36 -22 -75 -49z"/>
<path d="M4950 3088 c0 -47 3 -47 25 5 15 36 14 37 -5 37 -17 0 -20 -7 -20
-42z"/>
<path d="M554 950 c16 -5 33 -15 37 -22 11 -17 11 -379 0 -396 -4 -7 -21 -17
-37 -22 -21 -6 1 -8 76 -8 58 0 96 3 85 5 -46 11 -55 31 -55 120 l0 83 65 0
c107 0 155 40 155 129 0 32 -7 47 -34 74 -41 41 -67 47 -210 46 -80 0 -103 -3
-82 -9z m213 -36 c32 -20 47 -76 33 -119 -15 -46 -48 -67 -97 -63 l-38 3 -3
97 c-3 94 -2 97 20 101 29 5 57 -1 85 -19z"/>
<path d="M3394 950 c16 -5 33 -15 37 -22 5 -7 9 -96 9 -198 0 -102 -4 -191 -9
-198 -4 -7 -21 -17 -37 -22 -20 -6 11 -9 102 -9 145 -1 203 11 260 54 118 90
101 309 -29 377 -38 20 -59 22 -202 25 -109 2 -151 -1 -131 -7z m228 -20 c83
-23 138 -102 138 -200 0 -130 -98 -223 -216 -205 l-44 6 0 199 c0 198 0 199
23 203 40 8 61 7 99 -3z"/>
<path d="M5484 950 c16 -5 33 -15 37 -22 5 -7 9 -96 9 -198 0 -102 -4 -191 -9
-198 -4 -7 -21 -17 -37 -22 -21 -6 1 -8 76 -8 58 0 96 3 85 5 -46 11 -55 31
-55 120 l0 83 65 0 c107 0 155 40 155 129 0 32 -7 47 -34 74 -41 41 -67 47
-210 46 -80 0 -103 -3 -82 -9z m213 -36 c32 -20 47 -76 33 -119 -15 -46 -48
-67 -97 -63 l-38 3 -3 97 c-3 94 -2 97 20 101 29 5 57 -1 85 -19z"/>
<path d="M2655 831 c-83 -20 -130 -89 -123 -181 7 -96 66 -153 159 -154 60 0
112 32 138 88 64 131 -41 279 -174 247z m95 -38 c61 -56 60 -206 -2 -258 -84
-71 -181 20 -165 155 7 61 26 98 56 115 41 22 77 18 111 -12z"/>
<path d="M4254 826 c-18 -8 -36 -27 -44 -45 -20 -50 0 -84 82 -133 90 -53 106
-80 68 -118 -37 -37 -113 -18 -136 35 l-13 30 -1 -48 c0 -31 4 -46 10 -42 6 4
32 1 58 -6 42 -10 53 -9 84 5 40 19 64 62 54 100 -7 28 -37 54 -116 99 -47 28
-55 36 -55 62 0 21 7 33 26 44 37 21 84 0 109 -48 l19 -36 1 50 c0 48 -1 50
-27 50 -16 1 -41 4 -58 8 -18 4 -42 1 -61 -7z"/>
<path d="M4747 826 c-48 -18 -74 -41 -98 -88 -39 -77 -13 -175 58 -219 29 -18
51 -23 103 -23 96 0 110 11 110 84 0 47 4 64 20 80 l20 20 -62 -1 c-35 0 -56
-3 -48 -6 24 -10 30 -25 30 -85 0 -65 -12 -78 -73 -78 -44 0 -84 31 -108 84
-23 52 -24 100 0 151 23 51 41 66 88 72 51 6 89 -10 113 -49 l20 -33 0 45 c0
44 -1 45 -32 46 -18 0 -49 3 -68 7 -22 4 -50 1 -73 -7z"/>
<path d="M6315 831 c-83 -20 -130 -89 -123 -181 7 -96 66 -153 159 -154 60 0
112 32 138 88 64 131 -41 279 -174 247z m95 -38 c61 -56 60 -206 -2 -258 -84
-71 -181 20 -165 155 7 61 26 98 56 115 41 22 77 18 111 -12z"/>
<path d="M7390 828 c-120 -34 -161 -198 -72 -291 31 -33 89 -50 138 -41 36 7
104 57 104 76 0 6 -13 -4 -28 -20 -36 -39 -86 -49 -136 -28 -86 36 -101 192
-26 268 53 53 131 33 175 -46 7 -13 9 -3 7 39 -3 45 -6 53 -15 41 -11 -14 -17
-14 -52 -1 -46 16 -48 16 -95 3z"/>
<path d="M1019 683 c-35 -81 -71 -155 -81 -165 -17 -17 -16 -18 35 -17 41 0
47 2 30 9 -27 11 -28 19 -9 65 15 35 15 35 79 35 63 0 63 0 80 -35 22 -46 21
-54 -5 -65 -17 -6 -6 -9 45 -9 l68 -1 -24 23 c-15 13 -50 82 -83 165 -32 78
-61 142 -65 142 -4 0 -35 -66 -70 -147z m90 -1 l21 -52 -56 0 c-41 0 -55 3
-51 13 56 134 50 131 86 39z"/>
<path d="M1300 817 c25 -13 25 -13 25 -152 0 -139 0 -139 -25 -152 -22 -11
-17 -13 50 -12 41 1 66 4 55 6 -29 8 -35 21 -35 85 0 86 21 82 93 -14 56 -76
59 -78 100 -78 l42 0 -32 19 c-17 11 -51 46 -74 77 -39 53 -41 59 -24 68 37
22 55 47 55 77 0 69 -37 89 -169 89 -76 0 -83 -2 -61 -13z m160 -27 c45 -45 6
-120 -61 -120 l-29 0 0 70 0 70 35 0 c22 0 43 -8 55 -20z"/>
<path d="M1590 793 c0 -37 1 -37 13 -13 10 20 21 26 55 28 l43 3 -3 -147 -3
-148 -25 -7 c-15 -4 4 -7 50 -7 54 -1 69 2 53 8 -30 12 -34 35 -31 175 3 117
4 120 27 123 37 6 67 -6 79 -30 10 -21 11 -20 11 15 l1 37 -135 0 -135 0 0
-37z"/>
<path d="M1910 821 l25 -7 0 -149 0 -149 -25 -7 c-15 -4 5 -7 50 -7 41 0 67 2
57 5 -28 7 -37 45 -37 158 0 113 9 151 37 158 10 3 -16 5 -57 5 -45 0 -65 -3
-50 -7z"/>
<path d="M2060 793 c0 -37 1 -37 13 -13 10 20 21 26 55 28 l43 3 -3 -147 -3
-148 -25 -7 c-15 -4 4 -7 50 -7 54 -1 69 2 53 8 -30 12 -34 35 -31 175 3 117
4 120 27 123 37 6 67 -6 79 -30 10 -21 11 -20 11 15 l1 37 -135 0 -135 0 0
-37z"/>
<path d="M2380 821 l25 -7 0 -149 0 -149 -25 -7 c-15 -4 5 -7 50 -7 41 0 67 2
57 5 -28 7 -37 45 -37 158 0 113 9 151 37 158 10 3 -16 5 -57 5 -45 0 -65 -3
-50 -7z"/>
<path d="M2876 823 c49 -9 55 -30 52 -174 -3 -132 -3 -133 -28 -140 -16 -4 -1
-7 40 -7 36 1 55 3 42 5 -13 3 -25 10 -28 17 -3 7 -3 61 -2 122 l3 109 105
-129 105 -129 2 134 c3 159 7 177 36 189 16 7 7 9 -38 9 -33 -1 -53 -3 -45 -6
33 -12 40 -37 40 -135 0 -54 -3 -98 -7 -98 -5 1 -51 54 -103 120 l-95 119 -50
-1 c-27 0 -40 -3 -29 -5z"/>
<path d="M3885 823 c11 -3 23 -10 27 -17 4 -6 8 -69 8 -141 0 -71 -4 -135 -8
-141 -4 -7 -16 -14 -27 -17 -11 -2 38 -5 108 -6 l128 -1 15 35 c20 50 18 53
-13 16 -27 -31 -30 -32 -93 -29 l-65 3 -3 68 -3 67 55 0 c45 0 58 -4 70 -22
15 -21 16 -20 16 37 0 55 -1 58 -13 35 -11 -22 -20 -25 -70 -28 l-57 -3 0 66
0 65 70 0 c64 0 72 -2 80 -22 8 -21 9 -20 9 10 l1 32 -127 -1 c-71 -1 -119 -4
-108 -6z"/>
<path d="M4470 821 l25 -7 0 -149 0 -149 -25 -7 c-15 -4 5 -7 50 -7 41 0 67 2
57 5 -28 7 -37 45 -37 158 0 113 9 151 37 158 10 3 -16 5 -57 5 -45 0 -65 -3
-50 -7z"/>
<path d="M4976 823 c49 -9 55 -30 52 -174 -3 -132 -3 -133 -28 -140 -16 -4 -1
-7 40 -7 36 1 55 3 42 5 -13 3 -25 10 -28 17 -3 7 -3 61 -2 122 l3 109 105
-129 105 -129 2 134 c3 159 7 177 36 189 16 7 7 9 -38 9 -33 -1 -53 -3 -45 -6
33 -12 40 -37 40 -135 0 -54 -3 -98 -7 -98 -5 1 -51 54 -103 120 l-95 119 -50
-1 c-27 0 -40 -3 -29 -5z"/>
<path d="M5870 817 c25 -13 25 -13 25 -152 0 -139 0 -139 -25 -152 -22 -11
-17 -13 50 -12 41 1 66 4 55 6 -29 8 -35 21 -35 85 0 86 21 82 93 -14 56 -76
59 -78 100 -78 l42 0 -32 19 c-17 11 -51 46 -74 77 -39 53 -41 59 -24 68 37
22 55 47 55 77 0 69 -37 89 -169 89 -76 0 -83 -2 -61 -13z m160 -27 c45 -45 6
-120 -61 -120 l-29 0 0 70 0 70 35 0 c22 0 43 -8 55 -20z"/>
<path d="M6560 818 c25 -13 25 -15 25 -153 0 -138 0 -139 -25 -153 -22 -11
-11 -13 85 -10 121 3 159 17 199 71 30 40 30 144 0 183 -44 60 -64 67 -191 71
-103 4 -115 3 -93 -9z m205 -39 c39 -35 60 -94 49 -142 -17 -82 -59 -117 -139
-117 l-45 0 0 138 c0 76 3 142 7 145 3 4 26 7 49 7 34 0 51 -7 79 -31z"/>
<path d="M6910 821 c25 -7 25 -9 30 -132 6 -144 17 -172 77 -188 51 -14 66
-14 111 5 53 21 64 48 70 187 4 109 7 119 26 127 15 6 4 9 -39 9 -45 0 -54 -2
-38 -9 30 -12 37 -45 31 -157 -5 -86 -8 -97 -32 -121 -21 -21 -36 -27 -72 -27
-74 0 -84 20 -84 171 0 120 1 125 23 134 16 6 1 9 -53 8 -46 0 -65 -3 -50 -7z"/>
<path d="M7610 793 c0 -37 1 -37 13 -13 10 20 21 26 55 28 l43 3 -3 -147 -3
-148 -25 -7 c-15 -4 4 -7 50 -7 54 -1 69 2 53 8 -30 12 -34 35 -31 175 3 117
4 120 27 123 37 6 67 -6 79 -30 10 -21 11 -20 11 15 l1 37 -135 0 -135 0 0
-37z"/>
</g>
</svg>
