<svg width="100" height="100" viewBox="0 0 100 100" fill="none" xmlns="http://www.w3.org/2000/svg">
<path d="M37.5977 1.73828C35.8398 2.16797 34.2188 3.49609 33.3984 5.17578C32.9492 6.09375 32.9102 6.34766 32.9102 9.27734C32.9102 12.2852 32.9297 12.4414 33.4375 13.5352L33.9844 14.6875L33.4375 15.3906C32.9102 16.0742 32.9102 16.0938 32.8516 19.7656L32.793 23.4375H29.8828H26.9922L26.6406 24.4531C26.1133 26.0742 25.6836 26.8164 24.7656 27.6758C22.832 29.4531 20.2344 29.7461 17.7148 28.4961L16.4062 27.832L11.1914 33.0664L5.95703 38.2812L6.62109 39.5898C7.87109 42.1094 7.57812 44.707 5.80078 46.6406C4.94141 47.5586 4.19922 47.9883 2.59766 48.5156L1.5625 48.8672V56.25V63.6328L2.59766 63.9844C4.19922 64.5117 4.94141 64.9414 5.80078 65.8594C7.57812 67.793 7.87109 70.3906 6.62109 72.9102L5.95703 74.2188L11.1914 79.4336L16.4062 84.668L17.7148 84.0039C20.2344 82.7539 22.832 83.0469 24.7656 84.8242C25.6836 85.6836 26.1133 86.4258 26.6406 88.0273L26.9922 89.0625H29.8828H32.793L32.8516 92.7539C32.9102 96.7969 32.9688 96.9727 34.2578 97.9297L34.7852 98.3398H65.625H96.4648L96.9922 97.9297C97.2852 97.7148 97.7148 97.2852 97.9297 96.9922L98.3398 96.4648V56.25V16.0352L97.9297 15.5078C97.1094 14.3945 96.582 14.1602 94.7656 14.082L93.0859 14.0234L94.7461 13.3984C95.6641 13.0469 96.6602 12.5977 96.9336 12.3828C97.6172 11.8945 98.4375 10.2539 98.4375 9.375C98.4375 8.41797 97.5977 6.83594 96.8359 6.30859C96.4844 6.07422 93.5938 4.90234 90.4297 3.73047L84.6875 1.5625L61.4258 1.58203C48.6523 1.60156 37.9297 1.66016 37.5977 1.73828ZM42.1875 9.39453V14.1016L40.0586 14.0234C37.7539 13.9648 37.3047 13.7891 36.4453 12.6172C36.0938 12.168 36.0156 11.7383 35.9766 9.92188C35.8789 7.28516 35.9961 6.64062 36.6602 5.83984C37.4414 4.92188 38.125 4.70703 40.293 4.6875H42.1875V9.39453ZM48.4375 9.375V14.0625H46.875H45.3125V9.375V4.6875H46.875H48.4375V9.375ZM82.8125 6.25V7.8125H67.1875H51.5625V6.25V4.6875H67.1875H82.8125V6.25ZM87.6367 5.99609L89.0625 6.54297V9.375V12.207L87.6367 12.7539C86.8359 13.0469 86.1328 13.2812 86.0742 13.2812C85.9961 13.2812 85.9375 11.5234 85.9375 9.375C85.9375 7.22656 85.9961 5.46875 86.0742 5.46875C86.1328 5.46875 86.8359 5.70312 87.6367 5.99609ZM93.9453 8.35938C95.0195 8.80859 95.2148 8.96484 95.2148 9.375C95.2148 9.78516 95.0195 9.94141 93.9453 10.3906C93.2422 10.6641 92.5586 10.918 92.4414 10.918C92.2461 10.9375 92.1875 10.5078 92.1875 9.375C92.1875 8.24219 92.2461 7.8125 92.4414 7.83203C92.5586 7.83203 93.2422 8.08594 93.9453 8.35938ZM82.8125 12.5V14.0625H67.1875H51.5625V12.5V10.9375H67.1875H82.8125V12.5ZM95.3125 56.25V95.3125H65.625H35.9375V56.25V17.1875H65.625H95.3125V56.25ZM32.8125 29.6875C32.8125 32.0312 32.7539 32.8516 32.5781 32.8906C32.4414 32.9297 31.6016 33.0469 30.7031 33.1641C28.6914 33.4375 25.3711 34.5312 23.4375 35.5664C17.2266 38.9258 12.8906 44.6875 11.4062 51.5625C10.957 53.6328 10.8984 58.4375 11.3086 60.4492C12.7148 67.5781 17.0898 73.4961 23.4375 76.9336C25.3711 77.9688 28.6914 79.0625 30.7031 79.3359C31.6016 79.4531 32.4414 79.5703 32.5781 79.6094C32.7539 79.6484 32.8125 80.4688 32.8125 82.8125V85.9375H31.0547H29.2969L28.7891 84.9219C28.125 83.6133 26.3477 81.8359 25.0391 81.1719C22.8125 80.0391 19.9023 79.7852 17.8711 80.5273L17.0898 80.8203L13.4375 77.207L9.80469 73.5742L10.0977 72.7734C10.5078 71.6211 10.625 69.4141 10.3711 68.125C9.84375 65.6055 8.00781 63.0664 5.87891 61.9336L4.6875 61.3086V56.25V51.1719L5.70312 50.6641C7.87109 49.5703 9.84375 46.9141 10.3711 44.375C10.625 43.0859 10.5078 40.8789 10.0977 39.7266L9.80469 38.9258L13.4375 35.293L17.0898 31.6797L17.8711 31.9727C18.3008 32.1289 19.3164 32.3047 20.1172 32.3633C23.5742 32.6172 27.1094 30.7227 28.6914 27.7539L29.3164 26.5625H31.0742H32.8125V29.6875ZM32.7344 39.0039C32.6758 39.1406 32.3828 39.2578 32.0898 39.2578C31.8164 39.2578 30.9961 39.3945 30.293 39.5703C22.6367 41.5039 17.1875 48.418 17.1875 56.25C17.1875 64.1211 22.793 71.1719 30.4102 72.9297C31.1328 73.1055 31.9531 73.2617 32.2266 73.2812C32.6953 73.3398 32.7148 73.3984 32.7734 74.9219L32.832 76.5039L31.6016 76.3281C27.4805 75.7812 23.5938 73.9062 20.5273 70.9961C14.8047 65.5664 12.6758 57.6172 14.9805 50.293C15.625 48.2812 16.8945 45.7422 18.0273 44.2188C19.1797 42.7148 21.6406 40.3516 23.1055 39.3945C25.5273 37.793 28.8867 36.5039 31.5625 36.1719L32.7148 36.0352L32.7734 37.3828C32.8125 38.125 32.793 38.8477 32.7344 39.0039ZM32.8125 56.2695V70.1758L31.7969 70.0391C29.2773 69.707 26.1523 67.9688 24.1602 65.8203C22.6367 64.1602 21.7969 62.7539 21.0352 60.6055C20.4688 59.0039 20.4297 58.6914 20.4297 56.25C20.4297 53.8086 20.4688 53.4961 21.0352 51.8945C21.3672 50.957 21.9336 49.6875 22.2852 49.082C23.1641 47.6172 25.7812 45 27.2461 44.1406C28.5938 43.3398 31.2695 42.4023 32.1875 42.3828H32.8125V56.2695Z" fill="white"/>
<path d="M42.1875 31.25V39.0625H65.625H89.0625V31.25V23.4375H65.625H42.1875V31.25ZM85.9375 31.25V35.9375H65.625H45.3125V31.25V26.5625H65.625H85.9375V31.25Z" fill="white"/>
<path d="M48.4375 31.25V32.8125H50H51.5625V31.25V29.6875H50H48.4375V31.25Z" fill="white"/>
<path d="M54.6875 31.25V32.8125H56.25H57.8125V31.25V29.6875H56.25H54.6875V31.25Z" fill="white"/>
<path d="M60.9375 31.25V32.8125H62.5H64.0625V31.25V29.6875H62.5H60.9375V31.25Z" fill="white"/>
<path d="M67.1875 31.25V32.8125H68.75H70.3125V31.25V29.6875H68.75H67.1875V31.25Z" fill="white"/>
<path d="M73.4375 31.25V32.8125H75H76.5625V31.25V29.6875H75H73.4375V31.25Z" fill="white"/>
<path d="M79.6875 31.25V32.8125H81.25H82.8125V31.25V29.6875H81.25H79.6875V31.25Z" fill="white"/>
<path d="M42.1875 43.75V45.3125H50H57.8125V43.75V42.1875H50H42.1875V43.75Z" fill="white"/>
<path d="M60.9375 43.75V45.3125H64.0625H67.1875V43.75V42.1875H64.0625H60.9375V43.75Z" fill="white"/>
<path d="M70.3125 43.75V45.3125H79.6875H89.0625V43.75V42.1875H79.6875H70.3125V43.75Z" fill="white"/>
<path d="M42.1875 54.6875V60.9375H48.4375H54.6875V54.6875V48.4375H48.4375H42.1875V54.6875ZM49.2188 51.6211C49.2188 51.6406 48.3398 52.5391 47.2656 53.6133L45.3125 55.5664V53.5547V51.5625H47.2656C48.3398 51.5625 49.2188 51.582 49.2188 51.6211ZM51.5625 55.8594V57.8125H49.5703H47.5586L49.5117 55.8594C50.5859 54.7852 51.4844 53.9062 51.5039 53.9062C51.543 53.9062 51.5625 54.7852 51.5625 55.8594Z" fill="white"/>
<path d="M57.8125 53.125V54.6875H70.3125H82.8125V53.125V51.5625H70.3125H57.8125V53.125Z" fill="white"/>
<path d="M42.1875 70.3125V76.5625H48.4375H54.6875V70.3125V64.0625H48.4375H42.1875V70.3125ZM49.2188 67.2461C49.2188 67.2656 48.3398 68.1641 47.2656 69.2383L45.3125 71.1914V69.1797V67.1875H47.2656C48.3398 67.1875 49.2188 67.207 49.2188 67.2461ZM51.5625 71.4844V73.4375H49.5703H47.5586L49.5117 71.4844C50.5859 70.4102 51.4844 69.5312 51.5039 69.5312C51.543 69.5312 51.5625 70.4102 51.5625 71.4844Z" fill="white"/>
<path d="M57.8125 68.75V70.3125H67.1875H76.5625V68.75V67.1875H67.1875H57.8125V68.75Z" fill="white"/>
<path d="M83.2031 76.7774C82.4805 77.0704 81.4844 78.1055 81.25 78.7891C81.1523 79.1212 80.8008 81.543 80.4688 84.1602C80.1562 86.7774 79.8438 88.9844 79.7852 89.0235C79.5508 89.2579 79.4141 88.711 78.8867 85.6446C78.3008 82.2266 78.1055 81.6602 77.207 80.8204C75.1758 78.8868 71.875 79.5508 70.6836 82.129C70.3711 82.793 70.3125 83.418 70.3125 85.9766V89.0626H71.875H73.4375V86.2501C73.4375 83.2813 73.5742 82.8126 74.3945 82.8126C75.0781 82.8126 75.3516 83.4766 75.8594 86.6016C76.1523 88.3204 76.5234 90.0196 76.6992 90.3907C77.2656 91.6016 78.9258 92.3633 80.3711 92.1094C81.25 91.9336 82.5195 90.8204 82.793 89.9805C82.9102 89.629 83.2617 87.2071 83.5742 84.5899C83.9062 81.9727 84.1992 79.7852 84.2578 79.7266C84.5117 79.4922 84.6484 80.0196 85.1758 83.1055C85.4688 84.9024 85.8203 86.6407 85.9375 86.9922C86.2891 88.1055 87.6953 89.0626 88.9258 89.0626C89.9805 89.0626 91.2109 88.2813 91.7383 87.3047C92.1484 86.5235 92.1875 86.2305 92.1875 83.0665V79.6876H90.625H89.0625L89.043 82.8516C89.043 86.5235 88.8867 86.4649 88.2812 82.6172C87.7539 79.3165 87.5586 78.5743 87.0508 77.8516C86.3086 76.8165 84.4336 76.2891 83.2031 76.7774Z" fill="white"/>
<path d="M42.1875 85.9375V92.1875H48.4375H54.6875V85.9375V79.6875H48.4375H42.1875V85.9375ZM49.2188 82.8711C49.2188 82.8906 48.3398 83.7891 47.2656 84.8633L45.3125 86.8164V84.8047V82.8125H47.2656C48.3398 82.8125 49.2188 82.832 49.2188 82.8711ZM51.5625 87.1094V89.0625H49.5703H47.5586L49.5117 87.1094C50.5859 86.0352 51.4844 85.1562 51.5039 85.1562C51.543 85.1562 51.5625 86.0352 51.5625 87.1094Z" fill="white"/>
<path d="M57.8125 84.375V85.9375H62.5H67.1875V84.375V82.8125H62.5H57.8125V84.375Z" fill="white"/>
</svg>
