<svg id="Слой_1" data-name="Слой 1" xmlns="http://www.w3.org/2000/svg" viewBox="0 0 409.29 499.38"><defs><style>.cls-1{fill:#fff;}.cls-2{opacity:0;}.cls-3{fill:#fff;}.cls-4{fill:#fff;}</style></defs><path class="cls-1" d="M108.44,329l29.78-25.53V57.14L108.44,31.62H222c64.24,0,100,12.76,100,58.28C322,169,172.26,169,172.26,258.81v44.68L202,329ZM287.13,84.37c0-43.4-28.93-48.5-65.09-48.5H172.26V230.73C193.53,165.64,287.13,158,287.13,84.37Z" transform="translate(-108.44 -31.62)"/><g class="cls-2"><path class="cls-3" d="M338.41,75.36H320.57l.86,5h17c79.2,0,127.31,75.18,127.31,169.91,0,95.23-48.11,170.41-127.31,170.41H274.26V304.41c41.1-16.54,71.67-57.64,71.67-110.77h-5c0,50.62-28.57,89.22-66.66,105.25V80.37H287l-.36-5H254.21c-72.17,0-126.8,49.12-126.8,118.28a130.8,130.8,0,0,0,10.81,52.69V232.45l.24.37a128.52,128.52,0,0,1-6-39.18c0-60.14,42.1-103.74,101.75-111.77V307.42c-22.79,0-44.54-8.48-62.06-23.31l.15.23v6.29c17.76,13.86,39.28,21.8,61.91,21.8v83.2L199.08,425.7H338.41c88.72,0,168.41-67.66,168.41-175.42C506.82,143,427.13,75.36,338.41,75.36Z" transform="translate(-108.44 -31.62)"/></g><line x1="263.52" y1="390.8" x2="271.78" y2="388.95"/><path class="cls-1" d="M368,423.11v-6.22a114.56,114.56,0,0,1-29.55,3.8h-4.49v5h4.49A172.52,172.52,0,0,0,368,423.11Z" transform="translate(-108.44 -31.62)"/><path class="cls-1" d="M329.9,255.67a118.19,118.19,0,0,0,9.73-22.07h-5.26a112.74,112.74,0,0,1-8.31,18.78Z" transform="translate(-108.44 -31.62)"/><path class="cls-4" d="M391.42,407.6a106.7,106.7,0,0,1-14.59,6.5,83.62,83.62,0,0,0-4.62,8.25c2.81-.57,5.61-1.21,8.38-1.91A91.17,91.17,0,0,1,391.42,407.6Z" transform="translate(-108.44 -31.62)"/><path class="cls-1" d="M333.92,259.12V420.69h4.49a114.56,114.56,0,0,0,29.55-3.8v-179h49.78c19.06,0,36.06,1.49,47.93,9.18q-.06-5-.29-9.82c-13.5-2.53-29.37-3.61-47.64-3.61H339.63a118.19,118.19,0,0,1-9.73,22.07Z" transform="translate(-108.44 -31.62)"/><path class="cls-1" d="M517.73,291.89c0-14.75-3.82-26-11.07-34.57-1.21,36.63-11.72,68.4-28.68,94.17C500.61,336.31,517.73,318.62,517.73,291.89Z" transform="translate(-108.44 -31.62)"/><path class="cls-1" d="M304.14,233.6l21.92,18.78a112.74,112.74,0,0,0,8.31-18.78Z" transform="translate(-108.44 -31.62)"/><path class="cls-1" d="M368,432.71v-9.6a172.52,172.52,0,0,1-29.55,2.59h-4.49v79.77L304.14,531h93.6L368,505.47V460.8a68.69,68.69,0,0,1,12.63-40.36c-2.77.7-5.57,1.34-8.38,1.91A80,80,0,0,0,368,432.71Z" transform="translate(-108.44 -31.62)"/><path class="cls-1" d="M376.83,414.1a106.7,106.7,0,0,0,14.59-6.5c8-7.9,17.58-14.82,27.76-21.28a140.81,140.81,0,0,0,21.33-29C418.07,374.64,392.1,390,376.83,414.1Z" transform="translate(-108.44 -31.62)"/><path class="cls-4" d="M368,423.11c1.42-.24,2.84-.48,4.25-.76a83.62,83.62,0,0,1,4.62-8.25c-2.9,1-5.85,2-8.87,2.79Z" transform="translate(-108.44 -31.62)"/><path class="cls-4" d="M345.93,193.64l-2.55,9.47c-.59,3.3-1.34,6.77-2.26,10.37a146.87,146.87,0,0,1-6.75,20.12h5.26A127.91,127.91,0,0,0,345.93,193.64Z" transform="translate(-108.44 -31.62)"/><path class="cls-4" d="M506.66,257.32c.07-2.34.16-4.67.16-7,0-107.26-79.69-174.92-168.41-174.92H320.57l.86,5h17c75.51,0,122.73,68.36,127,156.84C484,240.68,497.88,247,506.66,257.32Z" transform="translate(-108.44 -31.62)"/><path class="cls-4" d="M274.26,420.69V304.41a112.84,112.84,0,0,0,55.64-48.74l-3.84-3.29a107.21,107.21,0,0,1-51.8,46.51V80.37H287l-.36-5H254.21c-72.17,0-126.8,49.12-126.8,118.28a130.8,130.8,0,0,0,10.81,52.69V232.45l.24.37a128.52,128.52,0,0,1-6-39.18c0-60.14,42.1-103.74,101.75-111.77V307.42c-22.79,0-44.54-8.48-62.06-23.31l.15.23v6.29c17.76,13.86,39.28,21.8,61.91,21.8v83.2L199.08,425.7H333.92v-5Z" transform="translate(-108.44 -31.62)"/><path class="cls-4" d="M482.84,286.35c0-20.52-6.53-32.41-17.17-39.32,0,1.09.05,2.16.05,3.25C465.72,291.11,482.84,319.75,482.84,286.35Z" transform="translate(-108.44 -31.62)"/><path class="cls-4" d="M391.42,407.6a91.17,91.17,0,0,0-10.83,12.84A164.29,164.29,0,0,0,478,351.49c-18,12.11-39.56,22.63-58.8,34.83A114.23,114.23,0,0,1,391.42,407.6Z" transform="translate(-108.44 -31.62)"/><path class="cls-4" d="M180.84,174c0-20.52-6.52-32.41-17.16-39.32,0,1.08,0,2.16,0,3.25C163.73,178.76,180.84,207.41,180.84,174Z" transform="translate(-108.44 -31.62)"/><path class="cls-3" d="M440.51,357.34" transform="translate(-108.44 -31.62)"/></svg>