<svg id="Слой_1" data-name="Слой 1" xmlns="http://www.w3.org/2000/svg" viewBox="0 0 535 496.77"><defs><style>.cls-1{fill:#a8a8a8;}.cls-2{opacity:0;}.cls-3{fill:#6ac3cc;}.cls-4,.cls-5{fill:#fff;}.cls-5{font-size:50.72px;font-family:MongolianBaiti, Mongolian Baiti;}.cls-10,.cls-6,.cls-7,.cls-9{font-size:36.23px;}.cls-7{letter-spacing:-0.06em;}.cls-8{letter-spacing:0em;}.cls-9{letter-spacing:0em;}.cls-10{letter-spacing:-0.02em;}</style></defs><path class="cls-1" d="M158.84,255.77l22.45-19.24V50.86L158.84,31.62h85.62c48.42,0,75.36,9.62,75.36,43.93,0,59.64-112.88,59.64-112.88,127.31v33.67l22.45,19.24ZM293.52,71.38c0-32.71-21.8-36.56-49.06-36.56H206.94V181.69C223,132.63,293.52,126.86,293.52,71.38Z" transform="translate(-32.5 -31.62)"/><g class="cls-2"><path class="cls-3" d="M332.17,64.59H318.72l.65,3.77h12.8c59.69,0,96,56.67,96,128.07,0,71.77-36.27,128.43-96,128.43H283.82V237.22c31-12.46,54-43.44,54-83.48h-3.78c0,38.15-21.53,67.24-50.24,79.33V68.36h9.63l-.27-3.77H268.71c-54.4,0-95.57,37-95.57,89.15a98.42,98.42,0,0,0,8.15,39.71V183l.18.28a96.79,96.79,0,0,1-4.55-29.53c0-45.33,31.73-78.2,76.68-84.24v170a72.39,72.39,0,0,1-46.77-17.57l.11.18v4.74a75.81,75.81,0,0,0,46.66,16.43V306l-26.44,22.66h105c66.87,0,126.93-51,126.93-132.21C459.1,115.58,399,64.59,332.17,64.59Z" transform="translate(-32.5 -31.62)"/></g><line x1="324.96" y1="294.55" x2="331.18" y2="293.16"/><path class="cls-1" d="M354.44,326.69V322a86.37,86.37,0,0,1-22.27,2.86h-3.38v3.78h3.38A129.59,129.59,0,0,0,354.44,326.69Z" transform="translate(-32.5 -31.62)"/><path class="cls-1" d="M325.76,200.49a89.61,89.61,0,0,0,7.33-16.64h-4A84.85,84.85,0,0,1,322.86,198Z" transform="translate(-32.5 -31.62)"/><path class="cls-4" d="M372.13,315a81.62,81.62,0,0,1-11,4.9,65.7,65.7,0,0,0-3.49,6.21c2.13-.42,4.23-.9,6.32-1.43A67.9,67.9,0,0,1,372.13,315Z" transform="translate(-32.5 -31.62)"/><path class="cls-1" d="M328.79,203.09V324.86h3.38A86.37,86.37,0,0,0,354.44,322V187.06H392c14.37,0,27.19,1.12,36.13,6.92,0-2.49-.11-5-.22-7.41-10.17-1.9-22.14-2.72-35.91-2.72H333.09a89.61,89.61,0,0,1-7.33,16.64Z" transform="translate(-32.5 -31.62)"/><path class="cls-1" d="M467.32,227.78c0-11.11-2.87-19.6-8.34-26.05-.9,27.61-8.83,51.56-21.61,71C454.43,261.27,467.32,247.93,467.32,227.78Z" transform="translate(-32.5 -31.62)"/><path class="cls-1" d="M306.34,183.85,322.86,198a84.85,84.85,0,0,0,6.27-14.16Z" transform="translate(-32.5 -31.62)"/><path class="cls-1" d="M354.44,333.93v-7.24a129.59,129.59,0,0,1-22.27,1.95h-3.38v60.13L306.34,408h70.55l-22.45-19.24V355.09A51.79,51.79,0,0,1,364,324.68c-2.09.53-4.19,1-6.32,1.43A62.43,62.43,0,0,0,354.44,333.93Z" transform="translate(-32.5 -31.62)"/><path class="cls-1" d="M361.13,319.9a81.62,81.62,0,0,0,11-4.9,125.18,125.18,0,0,1,20.92-16,106.28,106.28,0,0,0,16.07-21.84C392.21,290.16,372.64,301.76,361.13,319.9Z" transform="translate(-32.5 -31.62)"/><path class="cls-4" d="M354.44,326.69c1.07-.18,2.14-.36,3.2-.58a65.7,65.7,0,0,1,3.49-6.21c-2.18.79-4.41,1.5-6.69,2.1Z" transform="translate(-32.5 -31.62)"/><path class="cls-4" d="M337.84,153.74l-1.92,7.13c-.45,2.49-1,5.11-1.71,7.82a109.62,109.62,0,0,1-5.08,15.16h4A96.29,96.29,0,0,0,337.84,153.74Z" transform="translate(-32.5 -31.62)"/><path class="cls-4" d="M459,201.73c.06-1.76.12-3.52.12-5.3,0-80.85-60.06-131.84-126.93-131.84H318.72l.65,3.77h12.8c56.92,0,92.51,51.53,95.7,118.21C441.87,189.19,452.37,193.94,459,201.73Z" transform="translate(-32.5 -31.62)"/><path class="cls-4" d="M283.82,324.86V237.22a85,85,0,0,0,41.94-36.73l-2.9-2.48a80.85,80.85,0,0,1-39,35.06V68.36h9.63l-.27-3.77H268.71c-54.4,0-95.57,37-95.57,89.15a98.42,98.42,0,0,0,8.15,39.71V183l.18.28a96.79,96.79,0,0,1-4.55-29.53c0-45.33,31.73-78.2,76.68-84.24v170a72.39,72.39,0,0,1-46.77-17.57l.11.18v4.74a75.81,75.81,0,0,0,46.66,16.43V306l-26.44,22.66H328.79v-3.78Z" transform="translate(-32.5 -31.62)"/><path class="cls-4" d="M441,223.62c0-15.47-4.92-24.44-12.94-29.64,0,.82,0,1.62,0,2.45C428.13,227.2,441,248.79,441,223.62Z" transform="translate(-32.5 -31.62)"/><path class="cls-4" d="M372.13,315a67.9,67.9,0,0,0-8.17,9.68,123.87,123.87,0,0,0,73.41-52c-13.6,9.12-29.82,17.06-44.32,26.25A85.93,85.93,0,0,1,372.13,315Z" transform="translate(-32.5 -31.62)"/><path class="cls-4" d="M213.41,138.94c0-15.47-4.92-24.43-12.94-29.64,0,.82,0,1.63,0,2.45C200.51,142.52,213.41,164.11,213.41,138.94Z" transform="translate(-32.5 -31.62)"/><path class="cls-3" d="M409.12,277.12" transform="translate(-32.5 -31.62)"/><text class="cls-5" transform="translate(0 485.72)">P<tspan class="cls-6" x="28.21" y="0">A</tspan><tspan class="cls-7" x="54.37" y="0">R</tspan><tspan class="cls-6" x="76.36" y="0">TITION </tspan><tspan class="cls-8" x="206.14" y="0">D</tspan><tspan class="cls-6" x="242.77" y="0">ESIGN </tspan><tspan x="358.5" y="0">P</tspan><tspan class="cls-9" x="386.7" y="0">RODUC</tspan><tspan class="cls-10" x="513.52" y="0">T</tspan></text></svg>