<svg width="100" height="100" viewBox="0 0 100 100" fill="none" xmlns="http://www.w3.org/2000/svg">
<path d="M42.7148 1.83594C41.1133 2.42188 39.9219 3.61328 39.3359 5.21484C39.1797 5.68359 39.082 6.875 39.0625 8.53516V11.0938L38.0469 11.4258C36.1328 12.0508 32.1484 14.0625 29.9805 15.5078C27.6367 17.0898 23.7695 20.4102 23.8672 20.7617C23.9062 20.8984 24.3945 21.4258 24.9414 21.9531L25.9766 22.9102L27.4414 21.5039C30.1172 18.9648 33.7109 16.582 36.8164 15.2734C39.2578 14.2383 39.0039 14.043 39.1016 17.0312C39.1797 19.9023 39.4141 20.625 40.6445 21.8555C41.9922 23.2031 44.1797 23.7695 45.8398 23.1836C46.3086 23.0273 49.4922 21.3281 52.9297 19.4336C58.0273 16.6016 59.3359 15.8008 59.9414 15.0977L60.6641 14.2383L62.7148 15.0977C65.625 16.3477 68.4961 18.0664 70.6055 19.8047L71.1914 20.293L66.0742 20.3125H60.9375V34.375V48.4375H71.7773C81.9727 48.4375 82.6172 48.457 82.6172 48.7695C82.6172 49.3945 82.0508 52.3828 81.6406 53.8867C80.8008 56.9922 79.2578 60.4102 77.5586 62.9883L76.6602 64.3555L76.5625 59.668C76.4453 54.3555 76.3867 54.082 74.8828 52.7539C73.5938 51.6211 72.1094 51.3086 70.4297 51.7969C69.4336 52.0898 67.6758 53.7891 67.5 54.6289C67.3828 55.1758 67.168 55.3125 65.1953 56.1523C60.5859 58.125 55.4883 59.5703 50.293 60.3711C47.9102 60.7422 46.4062 60.8008 38.4766 60.918L29.3945 61.0352L28.125 61.6406C26.5625 62.3828 25.6055 63.2031 24.7656 64.4727C24.4336 65 24.1211 65.4297 24.1016 65.4297C23.9844 65.4297 21.7773 62.0703 21.1328 60.918C20.293 59.4141 18.9062 55.8984 18.3789 53.9062C18.1445 52.9883 17.8906 52.0898 17.8516 51.8945C17.7539 51.6016 17.8906 51.5625 18.8281 51.5625H19.8828L20.2148 50.5859C20.3906 50.0391 20.625 49.6094 20.7227 49.6094C20.8203 49.6094 21.2695 49.7852 21.7188 50.0195L22.5195 50.4297L25.5273 47.4023L28.5547 44.3945L28.1445 43.5938C27.9102 43.1445 27.7344 42.6953 27.7344 42.5977C27.7344 42.5 28.1836 42.2656 28.7109 42.0898L29.6875 41.7578V37.5V33.2422L28.7109 32.9102C28.1836 32.7344 27.7344 32.5 27.7344 32.4023C27.7344 32.3047 27.9102 31.8555 28.1445 31.4062L28.5547 30.6055L25.5273 27.5977L22.5195 24.5703L21.7188 24.9805C21.2695 25.2148 20.8203 25.3906 20.7227 25.3906C20.625 25.3906 20.3906 24.9414 20.2148 24.4141L19.8828 23.4375H15.625H11.3672L11.0352 24.4141C10.8594 24.9414 10.625 25.3906 10.5273 25.3906C10.4297 25.3906 9.98047 25.2148 9.53125 24.9805L8.73047 24.5703L5.72266 27.5977L2.69531 30.6055L3.10547 31.4062C3.33984 31.8555 3.51562 32.3047 3.51562 32.4023C3.51562 32.5 3.08594 32.7344 2.53906 32.9102L1.5625 33.2422V37.5V41.7578L2.53906 42.0898C3.08594 42.2656 3.51562 42.5 3.51562 42.5977C3.51562 42.6953 3.33984 43.1445 3.10547 43.5938L2.69531 44.3945L5.72266 47.4023L8.73047 50.4297L9.53125 50.0195C9.98047 49.7852 10.4297 49.6094 10.5273 49.6094C10.625 49.6094 10.8594 50.0391 11.0352 50.5859L11.3672 51.5625H12.9688H14.5898L15.0977 53.6914C16.3281 58.8672 18.8477 63.9648 22.168 67.9883L23.3984 69.4727L23.4766 73.1641C23.5352 76.8555 23.5352 76.8555 24.1602 78.1641C25.2148 80.3906 27.0117 81.8945 29.3359 82.5L30.3711 82.7539L31.4648 89.1797C32.0703 92.7148 32.6758 96.25 32.8125 97.0117L33.0469 98.4375H37.6172H42.1875L42.2266 95.0781L42.2852 91.7383L46.9336 90.1758L51.5625 88.6328V86.0938V83.5547L52.207 83.6914C57.207 84.707 61.2891 85.9375 65.0586 87.5391C67.168 88.4375 67.3828 88.5742 67.5 89.1211C67.6758 89.9609 69.4336 91.6602 70.4297 91.9531C72.2656 92.5 73.7305 92.1094 75.0977 90.7227C76.4648 89.3555 76.5625 88.9453 76.5625 83.8086C76.5625 80.293 76.6211 79.4922 76.8359 79.4922C76.9727 79.4922 77.7148 79.1797 78.457 78.8086C80.1367 77.9688 81.2695 76.7969 82.0898 75.0391C82.6562 73.8477 82.7148 73.5547 82.7148 71.875C82.7148 70.1953 82.6562 69.9023 82.1094 68.7305C81.7578 68.0273 81.0938 67.0117 80.5859 66.5039L79.6875 65.5664L80.4492 64.3555C83.0078 60.3125 84.8828 55.1172 85.5469 50.2344L85.8008 48.4375H92.1094H98.4375V34.375V20.3125H87.168L75.8789 20.293L74.1211 18.7305C70.6055 15.6055 66.8164 13.3008 62.6953 11.7383C61.0352 11.1133 60.6641 10.8789 60.1953 10.2344C59.8828 9.82422 59.4531 9.33594 59.2578 9.16016C58.6914 8.69141 46.7969 2.14844 45.957 1.83594C45.0195 1.50391 43.6523 1.50391 42.7148 1.83594ZM51.4062 8.30078C55.4297 10.5469 57.6367 11.875 57.7148 12.1289C57.793 12.3242 57.793 12.6758 57.7148 12.8711C57.5781 13.3203 45.5469 20.0977 44.6094 20.2539C43.8281 20.3906 42.8711 19.8828 42.4805 19.1406C42.0508 18.3008 42.0508 6.69922 42.4805 5.85938C42.8711 5.09766 43.6914 4.66797 44.5312 4.76562C44.9414 4.80469 47.6758 6.21094 51.4062 8.30078ZM87.7539 29.6875L82.1289 35.9375H79.6875H77.2461L71.6211 29.6875L66.0156 23.4375H79.6875H93.3594L87.7539 29.6875ZM74.1602 37.2266C74.1406 37.2461 71.8555 38.75 69.1016 40.6055L64.0625 43.9453V34.9609V25.957L69.1211 31.582C71.9141 34.668 74.1797 37.207 74.1602 37.2266ZM95.2734 39.4141L95.2148 43.8867L90.1953 40.5469L85.1953 37.207L90.1953 31.6406L95.2148 26.0742L95.2734 30.5078C95.293 32.9688 95.293 36.9727 95.2734 39.4141ZM18.0664 27.5781C18.418 28.457 18.5547 28.6133 19.2773 28.8867C20.0781 29.1602 20.1562 29.1602 21.0352 28.7305L21.9336 28.3008L23.3789 29.7461L24.8242 31.1914L24.3945 32.0898C23.9648 32.9688 23.9648 33.0469 24.2383 33.8477C24.5117 34.5703 24.668 34.707 25.5469 35.0586L26.5625 35.4492V37.5V39.5508L25.5469 39.9414C24.668 40.293 24.5117 40.4297 24.2383 41.1523C23.9648 41.9531 23.9648 42.0312 24.3945 42.9102L24.8242 43.8086L23.3789 45.2539L21.9336 46.6992L21.0352 46.2695C20.1953 45.8594 20.0586 45.8398 19.375 46.0742C18.3594 46.4453 18.2422 46.5625 17.9688 47.5586L17.7148 48.4375H15.6445H13.5742L13.1836 47.4219C12.832 46.543 12.6953 46.3867 11.9727 46.1133C11.1719 45.8398 11.0938 45.8398 10.2148 46.2695L9.31641 46.6992L7.87109 45.2539L6.42578 43.8086L6.85547 42.9102C7.26562 42.0703 7.28516 41.9336 7.05078 41.25C6.67969 40.2344 6.5625 40.1172 5.56641 39.8438L4.6875 39.5898V37.5195V35.4492L5.70312 35.0586C6.58203 34.707 6.73828 34.5703 7.01172 33.8477C7.28516 33.0469 7.28516 32.9688 6.85547 32.0898L6.42578 31.1914L7.87109 29.7461L9.31641 28.3008L10.2148 28.7305C11.0547 29.1406 11.1914 29.1602 11.875 28.9258C12.8906 28.5547 13.0078 28.4375 13.2812 27.4414L13.5352 26.5625H15.6055H17.6758L18.0664 27.5781ZM87.0117 42.1875L91.6992 45.3125H79.6875H67.6758L72.3633 42.1875L77.0508 39.0625H79.6875H82.3242L87.0117 42.1875ZM72.9492 55.1758L73.4375 55.6445V71.875V88.1055L72.9492 88.5742C72.3242 89.2188 71.4258 89.2188 70.8008 88.5742L70.3125 88.1055V71.875V55.6445L70.8008 55.1758C71.0938 54.8633 71.5039 54.6875 71.875 54.6875C72.2461 54.6875 72.6562 54.8633 72.9492 55.1758ZM67.1875 71.8945C67.1875 82.3047 67.1289 84.9805 66.9531 84.9023C58.0078 81.25 50.5273 79.6875 41.9531 79.6875H39.0625V71.875V64.0625H41.9531C49.7266 64.0625 57.7148 62.5391 64.5508 59.7656C65.8398 59.2383 66.9531 58.8086 67.0508 58.8086C67.1289 58.7891 67.1875 64.6875 67.1875 71.8945ZM35.9375 71.875V79.6875H33.2812C31.7578 79.6875 30.2734 79.5898 29.8047 79.4531C28.7305 79.1406 27.1094 77.5195 26.7969 76.4453C26.4844 75.3516 26.4844 68.3984 26.7969 67.3047C27.0898 66.3086 28.7305 64.6289 29.6875 64.3164C30.0586 64.1992 31.6211 64.1016 33.1641 64.082L35.9375 64.0625V71.875ZM77.3242 67.8711C77.6367 68.0273 78.1836 68.5156 78.5547 68.9453C80.0586 70.6836 80.0586 73.0664 78.5547 74.8047C77.9883 75.4883 77.0312 76.1719 76.6602 76.1719C76.6016 76.1719 76.5625 74.2383 76.5625 71.875C76.5625 69.5117 76.6016 67.5781 76.6602 67.5781C76.7383 67.5781 77.0312 67.7148 77.3242 67.8711ZM39.0625 89.0625V95.332L37.3633 95.2734L35.6641 95.2148L34.6484 89.2578C34.082 85.9766 33.6133 83.1836 33.6133 83.0469C33.5938 82.8711 34.2578 82.8125 36.3281 82.8125H39.0625V89.0625ZM48.0078 83.1445C48.4375 83.2422 48.457 83.3203 48.3984 84.8242L48.3398 86.3867L45.2734 87.4219L42.1875 88.4375V85.6055V82.7539L44.8633 82.8906C46.3477 82.9688 47.7539 83.0664 48.0078 83.1445Z" fill="white"/>
<path d="M13.7891 29.8828C12.5586 30.1953 10.8008 31.25 9.94141 32.168C9.51172 32.6367 8.86719 33.6133 8.53516 34.3359C7.96875 35.5273 7.91016 35.8203 7.91016 37.5195C7.91016 39.2773 7.94922 39.4531 8.63281 40.8594C9.51172 42.6367 10.6445 43.7305 12.4609 44.5898C13.6523 45.1562 13.9453 45.2148 15.625 45.2148C17.3047 45.2148 17.5977 45.1562 18.7891 44.5898C20.6055 43.7305 21.7383 42.6367 22.6172 40.8594C23.3008 39.4531 23.3398 39.2773 23.3398 37.5C23.3398 35.7227 23.3008 35.5469 22.6172 34.1406C21.2891 31.4844 18.9453 29.9023 16.0547 29.7656C15.2344 29.7266 14.2188 29.7852 13.7891 29.8828ZM17.0703 33.0469C18.75 33.5547 20.3125 35.7031 20.3125 37.5C20.3125 39.9219 18.0469 42.1875 15.625 42.1875C14.3945 42.1875 13.3984 41.7383 12.4023 40.7227C10.4102 38.75 10.4102 36.25 12.4023 34.2773C13.7695 32.8906 15.2344 32.5195 17.0703 33.0469Z" fill="white"/>
<path d="M43.75 28.125C43.75 29.4336 43.6914 29.6875 43.4375 29.6875C41.9336 29.6875 39.7461 31.4062 39.2969 32.9297C38.75 34.7656 39.1407 36.2305 40.5274 37.5977C41.7578 38.8477 42.4805 39.0625 45.293 39.0625C47.3438 39.0625 47.5 39.082 47.9493 39.5508C48.5938 40.1758 48.5938 41.0742 47.9493 41.6992C47.5 42.168 47.3438 42.1875 45.3125 42.1875C43.2813 42.1875 43.125 42.168 42.6758 41.6992C42.4024 41.4453 42.1875 41.0938 42.1875 40.918C42.1875 40.6836 41.8946 40.625 40.625 40.625C39.3164 40.625 39.0625 40.6836 39.0625 40.9375C39.0625 42.8906 41.4844 45.3125 43.4375 45.3125C43.6914 45.3125 43.75 45.5664 43.75 46.875V48.4375H45.3125H46.875V46.875C46.875 45.5664 46.9336 45.3125 47.1875 45.3125C48.6914 45.3125 50.8789 43.5938 51.3282 42.0703C51.875 40.2344 51.4844 38.7695 50.0977 37.4023C48.8672 36.1523 48.1446 35.9375 45.3321 35.9375C43.2813 35.9375 43.125 35.918 42.6758 35.4492C42.0313 34.8242 42.0313 33.9258 42.6758 33.3008C43.125 32.832 43.2813 32.8125 45.3125 32.8125C47.3438 32.8125 47.5 32.832 47.9493 33.3008C48.2227 33.5547 48.4375 33.9062 48.4375 34.082C48.4375 34.3164 48.7305 34.375 50 34.375C51.3086 34.375 51.5625 34.3164 51.5625 34.0625C51.5625 32.5781 50 30.5078 48.4961 30C47.9883 29.8242 47.4219 29.6875 47.2266 29.6875C46.9141 29.6875 46.875 29.5117 46.875 28.125V26.5625H45.3125H43.75V28.125Z" fill="white"/>
</svg>
