<svg width="100" height="100" viewBox="0 0 100 100" fill="none" xmlns="http://www.w3.org/2000/svg">
<path d="M57.6367 0.780937C56.8359 0.995781 55.5469 1.52312 54.7461 1.95282C52.793 2.98797 51.6016 3.32 49.6289 3.32C45.1172 3.33953 41.7969 5.13641 39.3555 8.88641C38.0859 10.8395 37.2266 11.6794 35.5469 12.5973C33.8086 13.5544 32.4414 14.7653 31.4648 16.2106C30.1953 18.1247 29.8633 19.277 29.6875 22.2653L29.5312 24.902L28.3398 27.1872C25.957 31.777 25.957 34.4333 28.3398 39.0231L29.5312 41.3083L29.6875 43.945C29.7852 45.8981 29.9414 46.8747 30.2539 47.695C31.1328 49.9997 32.9492 52.1286 34.9609 53.2614C37.3047 54.5895 37.8906 55.0974 39.1406 57.0114C41.8164 61.0739 44.4531 62.5778 49.4141 62.8708C52.2852 63.0466 52.4023 63.0856 54.9805 64.3747C57.1875 65.4684 59.1211 65.8981 61.2305 65.7419C63.1836 65.6052 64.0625 65.3317 66.6602 64.0427L68.75 63.027L71.4453 62.8708C73.5742 62.7731 74.4531 62.6364 75.5664 62.2458C78.2031 61.3278 79.9805 59.8434 81.7188 57.1677C82.9102 55.3122 83.6523 54.6091 85.4492 53.613C88.0469 52.1481 90.0391 49.8044 90.8398 47.2848C91.0938 46.4841 91.2891 45.0778 91.3867 43.5544C91.543 40.9567 91.6602 40.5661 93.0469 38.2028C94.7656 35.2341 94.7656 30.9763 93.0469 28.0075C91.6602 25.6442 91.543 25.2536 91.3867 22.6559C91.1523 18.8473 90.3906 16.9333 88.2227 14.6872C87.6562 14.1013 86.4648 13.2028 85.5469 12.6559C83.3984 11.4059 83.0273 11.0348 81.5039 8.73016C79.043 5.01922 76.4258 3.59344 71.4453 3.33953L68.75 3.18328L66.5234 2.07C63.125 0.370781 60.6055 0.0192184 57.6367 0.780937ZM62.207 4.3161C62.6367 4.41375 63.8672 4.9411 64.9414 5.46844C67.3828 6.67938 68.75 7.03094 70.9961 7.03094C74.7852 7.03094 76.9922 8.26141 78.8086 11.3864C79.7656 13.0466 81.5039 14.7067 83.3594 15.7028C85.0391 16.6208 86.3672 17.9684 87.0508 19.4528C87.4414 20.3317 87.5586 20.9763 87.6953 23.1052C87.8711 26.0153 88.0273 26.5817 89.5117 29.277L90.5273 31.152V33.1052V35.0583L89.5117 36.9333C88.0273 39.6286 87.8711 40.195 87.6953 43.1052C87.5586 45.2341 87.4414 45.8786 87.0508 46.7575C86.3672 48.2419 85.0391 49.5895 83.3594 50.5075C81.5039 51.5036 79.7656 53.1638 78.8086 54.8239C76.9922 57.9489 74.7852 59.1794 70.9961 59.1794C68.7305 59.1794 67.3633 59.5309 64.9414 60.7419C61.3867 62.5192 59.5312 62.5192 56.0742 60.7614C53.7109 59.57 52.2461 59.1794 49.8828 59.1794C46.25 59.1794 44.3359 58.1247 42.2852 54.9802C40.8984 52.8513 39.7852 51.777 37.6172 50.5075C34.4336 48.6325 33.6133 47.2848 33.3789 43.5544C33.2031 40.7223 32.793 39.238 31.6992 37.3434C30.5469 35.3708 30.3711 34.8239 30.3711 33.1052C30.3711 31.3864 30.5469 30.8395 31.6992 28.8669C32.793 26.9723 33.2031 25.488 33.3789 22.6559C33.6133 18.9255 34.4336 17.5778 37.5781 15.7419C39.6875 14.4919 41.1523 13.0856 42.2266 11.2692C42.6562 10.5466 43.4961 9.53094 44.0625 9.0036C45.5859 7.61688 46.7773 7.22625 50 7.03094C53.0078 6.85516 53.8672 6.62078 55.9961 5.46844C58.3594 4.19891 60.3516 3.82782 62.207 4.3161Z" fill="white"/>
<path d="M70.8008 13.75C70.3125 13.9648 68.2813 17.0898 58.9258 32.0703C46.6602 51.7187 47.0508 50.9766 48.1445 52.0508C48.7695 52.6953 49.9805 52.7148 50.6445 52.0898C50.918 51.8555 56.1133 43.6523 62.2266 33.8867C74.2773 14.5703 73.9258 15.2148 72.8516 14.1797C72.2266 13.5742 71.543 13.4375 70.8008 13.75Z" fill="white"/>
<path d="M48.3595 14.7656C46.1329 15.4688 44.3751 17.0898 43.2423 19.4336C40.9376 24.2383 42.754 30.1562 47.2267 32.3633C48.6134 33.0664 48.8282 33.1055 50.4689 33.1055C52.0704 33.1055 52.3829 33.0273 53.5353 32.4805C56.6407 30.957 58.5939 27.6172 58.5939 23.8281C58.5939 18.7695 55.254 14.7656 50.8595 14.5312C49.8048 14.4727 49.0236 14.5508 48.3595 14.7656ZM51.6407 18.3789C53.3986 18.8672 54.8829 21.2891 54.8829 23.7109C54.8829 26.2305 53.8673 28.125 52.0314 29.0234C51.1525 29.4531 50.8009 29.5312 50.0392 29.4141C46.2111 28.9062 44.6095 23.0078 47.4025 19.7266C48.5743 18.3594 49.9611 17.9102 51.6407 18.3789Z" fill="white"/>
<path d="M68.3397 33.3591C65.7811 34.2185 63.7499 36.3474 62.7733 39.2576C62.246 40.8201 62.285 44.199 62.871 45.781C63.4569 47.4021 64.3163 48.6716 65.5858 49.8044C67.1288 51.1716 68.3983 51.6404 70.6053 51.6404C72.1874 51.6404 72.4999 51.5818 73.6522 51.0349C77.3436 49.238 79.4139 44.6091 78.496 40.1951C77.91 37.3826 75.6444 34.4724 73.3397 33.5935C71.7382 32.988 69.746 32.8904 68.3397 33.3591ZM71.9725 37.0896C72.9882 37.5583 73.8866 38.5349 74.453 39.7458C75.1171 41.2107 75.0975 43.6326 74.3944 45.1169C73.7889 46.3865 73.0467 47.1873 71.9725 47.6755C69.9413 48.613 67.6952 47.4998 66.5624 45.0193C65.9374 43.6326 65.9374 41.1326 66.5624 39.7458C67.3827 37.949 68.9842 36.7185 70.5077 36.7185C70.8788 36.7185 71.5428 36.8943 71.9725 37.0896Z" fill="white"/>
<path d="M1.54301 62.6561L0.918007 63.2225L0.449257 79.9022C0.0976949 92.8319 0.0391012 96.6991 0.214882 97.1287C0.64457 98.1444 0.859414 98.1834 9.25785 98.4373C16.836 98.6522 17.0703 98.6522 17.5586 98.2811C18.2618 97.7733 18.5547 97.1287 18.5547 96.0936V95.2147L21.211 93.8475C25.0782 91.8553 24.0821 91.7381 38.6719 95.8592C45.1758 97.6756 51.1133 99.2772 51.8946 99.3944C55.918 99.9998 60.9571 99.3748 64.7461 97.7928C65.293 97.578 71.2696 93.8084 78.0274 89.4334C84.8047 85.078 92.2656 80.2537 94.6289 78.7303C99.2383 75.7616 100 75.117 100 74.2577C100 73.0467 97.832 70.6053 95.8789 69.6092C93.7695 68.5545 91.4063 68.2616 89.2578 68.828C88.6719 68.9842 84.7266 70.742 80.5078 72.7342C76.3086 74.7264 72.8125 76.367 72.7735 76.367C72.7344 76.367 72.4805 75.9959 72.2071 75.5272C71.4063 74.1795 69.1602 72.1873 67.5391 71.4061C65.293 70.3319 63.8867 70.1561 55.3711 69.9412C49.7266 69.785 47.4024 69.6483 46.3867 69.4139C45.6446 69.2381 43.6524 68.4569 41.9922 67.6756C37.0703 65.3319 34.3555 64.7264 29.5313 64.9022C25.9766 65.0194 23.3985 65.6444 19.5703 67.3241C19.3946 67.4022 19.336 66.9725 19.336 65.5662C19.336 63.867 19.2969 63.6327 18.8672 63.1444C18.418 62.617 18.3789 62.617 15.4102 62.4803C13.75 62.4022 10.0977 62.285 7.30472 62.2069L2.18754 62.0702L1.54301 62.6561ZM13.0469 66.1327L15.6641 66.2498L15.5469 69.1209C15.4688 70.6834 15.293 77.1092 15.1172 83.3983C14.9414 89.6873 14.7852 94.8436 14.7852 94.8436C14.7071 94.9022 3.84769 94.5311 3.80863 94.492C3.75004 94.3944 4.51176 66.328 4.58988 66.0936C4.66801 65.8592 6.93363 65.8787 13.0469 66.1327ZM34.1407 68.8475C36.3672 69.2772 37.7149 69.7459 40.6641 71.1717C45.0977 73.3202 46.3086 73.5155 56.836 73.7303C60.1172 73.8084 63.2227 73.9452 63.75 74.0428C66.1524 74.492 68.4961 76.2498 69.5313 78.3983C70.4688 80.3709 70.4688 80.3709 68.75 80.3319C67.9492 80.2928 63.3399 80.1756 58.5352 80.0584C48.8867 79.8045 49.0039 79.785 48.5157 80.9764C48.0664 82.0702 48.7305 83.3006 49.8828 83.4959C50.2149 83.535 55.4688 83.7303 61.5625 83.8866C71.4063 84.16 72.6953 84.16 73.2031 83.9061C74.0235 83.4959 74.2969 82.6561 74.1406 81.1717L74.0235 79.9412L81.9727 76.1717C89.2578 72.7342 90.0586 72.4022 91.211 72.3241C92.6172 72.2264 94.375 72.7342 95.0195 73.4373C95.3516 73.7889 95.3125 73.828 94.0235 74.6678C93.2813 75.1561 86.1524 79.7459 78.2031 84.9022C62.461 95.078 62.7344 94.9217 58.8867 95.6053C56.9141 95.9373 54.1602 95.9764 52.3438 95.6834C51.6407 95.5858 45.8985 94.0233 39.5508 92.2459C33.2227 90.4686 27.4024 88.9061 26.6407 88.8084C24.7266 88.535 22.6563 88.9452 20.5078 90.0194C19.6289 90.4686 18.8477 90.7811 18.7891 90.7225C18.6328 90.5662 19.1407 71.992 19.2969 71.8358C19.6289 71.5233 22.5 70.078 23.5547 69.7069C26.7188 68.5936 30.9571 68.242 34.1407 68.8475Z" fill="white"/>
</svg>
