<svg width="75" height="75" viewBox="0 0 75 75" fill="none" xmlns="http://www.w3.org/2000/svg">
<path d="M23.3643 0.175774C23.7598 0.249016 24.6533 0.571281 25.3418 0.893547L26.5869 1.47948L49.043 23.9209C70.3564 45.2197 71.5283 46.4209 71.9971 47.3877C72.4072 48.2373 72.7148 49.4385 73.7549 54.3457C74.4434 57.6123 75 60.4248 75 60.6152C75 60.8057 74.8096 61.1572 74.5752 61.3916C74.0479 61.9043 73.5645 61.9336 71.7041 61.5381C70.9717 61.3769 68.4668 60.8496 66.1377 60.3516C61.333 59.3262 60.8643 59.1943 59.8389 58.5205C59.4434 58.2568 49.1162 48.0322 36.8994 35.8008C19.7021 18.5596 14.5898 13.374 14.2383 12.7441C13.2275 10.8984 12.8906 8.36425 13.4033 6.38671C13.96 4.24804 15.6738 2.03613 17.5342 1.05468C19.2627 0.131828 21.4453 -0.190437 23.3643 0.175774ZM19.3066 3.47167C18.1934 3.99902 17.124 5.03905 16.582 6.13769C16.2305 6.87011 16.1865 7.11913 16.1865 8.49609C16.1865 10.7519 16.4941 11.3086 19.2188 14.0185L21.3135 16.1133L25.2686 12.1582L29.2236 8.20312L27.3193 6.28417C26.2646 5.22948 25.1221 4.1748 24.7705 3.92577C23.2031 2.82714 21.0645 2.65136 19.3066 3.47167ZM27.3486 14.3262L23.4375 18.2373L24.2139 19.0137L24.9756 19.7754L28.9307 15.8203L32.8857 11.8652L32.1533 11.1328C31.7578 10.7373 31.3916 10.4004 31.3477 10.4004C31.3037 10.4004 29.502 12.1582 27.3486 14.3262ZM31.0107 17.9883L27.0996 21.8994L27.876 22.6758L28.6377 23.4375L32.5928 19.4824L36.5479 15.5273L35.8154 14.7949C35.4199 14.3994 35.0537 14.0625 35.0098 14.0625C34.9658 14.0625 33.1641 15.8203 31.0107 17.9883ZM37.1631 19.1601L35.7422 20.581L49.3506 34.1894L62.959 47.7978L63.6182 47.7246C64.5557 47.6074 65.5664 46.9775 66.0791 46.1719L66.5039 45.4834L52.6318 31.6113C44.9854 23.9648 38.7158 17.7246 38.6719 17.7246C38.6279 17.7246 37.9541 18.3691 37.1631 19.1601ZM32.1826 24.1406L30.7617 25.5615L44.6777 39.4775L58.5938 53.3935L59.1357 53.1006C59.8535 52.7051 60.6006 51.665 60.8057 50.7129L60.9961 49.9365L47.373 36.3135C39.8877 28.8281 33.7354 22.7051 33.6914 22.7051C33.6475 22.7051 32.9736 23.3496 32.1826 24.1406ZM68.0566 48.4277C67.3096 49.3213 66.1523 50.0537 64.8779 50.4492L63.8232 50.7715L63.6328 51.5332C63.3105 52.7637 62.71 53.7744 61.7285 54.7412L60.791 55.6641L61.3477 56.0303C61.8311 56.3525 63.1787 56.7627 64.541 57.0264C64.9658 57.0996 65.1416 56.9678 67.6025 54.4922L70.21 51.8848L70.0342 50.9912C69.6973 49.2773 69.082 47.7539 68.7305 47.7539C68.6719 47.7539 68.3643 48.0469 68.0566 48.4277ZM69.5947 56.6016L68.3789 57.832L69.1553 57.9932C69.5947 58.081 70.2979 58.2275 70.7227 58.3301C71.1328 58.418 71.5137 58.4619 71.543 58.4326C71.6309 58.3447 71.001 55.3711 70.8984 55.3711C70.8545 55.3711 70.2686 55.9277 69.5947 56.6016Z" fill="white"/>
<path d="M5.27346 11.001C6.24026 11.4258 63.4131 68.584 63.9405 69.6387C64.9951 71.748 63.75 74.3555 61.4502 74.8535C60.9375 74.9707 52.2656 75 31.7139 74.9707C3.75002 74.9268 2.69534 74.9121 2.19729 74.6484C1.47952 74.2676 0.761742 73.5644 0.395531 72.876L0.0732651 72.29V60.8203V49.3359L0.483421 48.9844C1.04006 48.501 1.88967 48.501 2.44631 48.9844L2.85647 49.3359L2.90041 60.4394C2.92971 70.4736 2.95901 71.5723 3.17873 71.8066C3.39846 72.0557 4.61428 72.0703 32.1533 72.0703C59.8096 72.0703 60.9082 72.0557 61.128 71.8066C61.6699 71.2207 61.4795 70.957 58.711 68.1592L56.0449 65.4932L54.7705 66.7236C53.5987 67.8516 53.4229 67.9687 52.9102 67.9687C52.1778 67.9687 51.6065 67.5293 51.4746 66.8701C51.3428 66.123 51.5039 65.8301 52.749 64.541L53.8916 63.3398L50.5371 59.9853L47.1826 56.6309L45.9522 57.8174C45.1905 58.5498 44.5752 59.0185 44.2969 59.0771C43.3008 59.2676 42.3487 58.3301 42.5684 57.3779C42.627 57.0703 43.0664 56.4844 43.8428 55.6934L45.0293 54.4775L41.6309 51.0937L38.2471 47.6953L36.9434 48.9697C35.5371 50.332 35.2588 50.4492 34.4239 50.0244C33.8819 49.7461 33.6914 49.3945 33.6914 48.6914C33.6914 48.208 33.8233 48.0176 34.9365 46.8896L36.167 45.6152L32.7686 42.2168L29.3701 38.833L28.1104 40.0635C26.9824 41.1768 26.792 41.3086 26.3086 41.3086C25.6055 41.3086 25.2539 41.1182 24.961 40.5469C24.5655 39.7851 24.7705 39.3164 26.1182 37.9687L27.3194 36.7676L23.9209 33.3691L20.5225 29.9707L19.3067 31.1572C17.9444 32.4756 17.461 32.6953 16.6992 32.2998C16.1719 32.0215 15.8057 31.3037 15.9229 30.7471C15.9668 30.5273 16.4795 29.8828 17.1533 29.209C17.7832 28.5791 18.3106 27.9932 18.3106 27.9053C18.3106 27.8174 16.8164 26.25 14.9707 24.4189L11.6455 21.0937L10.8399 21.9141C9.126 23.6719 8.29104 23.9795 7.45608 23.1592C7.11916 22.8223 7.03127 22.6025 7.03127 22.1191C7.03127 21.5625 7.11916 21.4307 8.27639 20.2295L9.50686 18.9551L6.84084 16.2891C4.02834 13.4912 3.72073 13.2861 3.17873 13.8867C2.94436 14.1357 2.92971 15.0732 2.92971 24.2871V34.4238L2.50491 34.8926C2.15334 35.2881 1.97756 35.376 1.46487 35.376C0.952171 35.376 0.77639 35.2881 0.424828 34.8926L2.28882e-05 34.4238V24.2285C2.28882e-05 17.5488 0.0586166 13.8281 0.161156 13.4326C0.703148 11.2793 3.22268 10.0781 5.27346 11.001Z" fill="white"/>
<path d="M27.5684 47.4316L42.7734 62.6221V63.2373C42.7734 63.6768 42.6709 63.9697 42.4219 64.2627L42.0703 64.6729L26.7773 64.7168C15.4688 64.7461 11.3965 64.7021 11.0889 64.585C10.21 64.2187 10.2393 65.0098 10.2832 48.252L10.3272 32.9297L10.7373 32.5781C11.0303 32.3291 11.3232 32.2266 11.7627 32.2266H12.3779L27.5684 47.4316ZM13.1836 49.5117V61.8164H25.5176H37.8662L25.5615 49.5117C18.7939 42.7441 13.2422 37.207 13.2275 37.207C13.1982 37.207 13.1836 42.7441 13.1836 49.5117Z" fill="white"/>
<path d="M2.18262 40.7813C3.45703 41.4844 2.91504 43.5059 1.46485 43.5059C0.71778 43.5059 7.62939e-06 42.7881 7.62939e-06 42.0557C7.62939e-06 40.957 1.21583 40.2393 2.18262 40.7813Z" fill="white"/>
</svg>
