<svg width="100" height="100" viewBox="0 0 100 100" fill="none" xmlns="http://www.w3.org/2000/svg">
<path d="M41.8164 0.332031C41.5625 0.546875 40.7031 2.42188 39.6875 4.96094L37.9883 9.21875L35.8398 9.98047C34.6484 10.3906 32.793 11.1719 31.6992 11.6992L29.6875 12.6758L25.3125 10.8008C21.2695 9.08203 20.8789 8.94531 20.3516 9.16016C19.5703 9.49219 9.23828 19.9023 9.08203 20.5078C9.00391 20.8789 9.43359 22.1289 10.8203 25.3516L12.6758 29.6875L11.6992 31.6797C11.1719 32.793 10.3906 34.6484 9.98047 35.8398L9.21875 37.9883L4.96094 39.6875C2.42188 40.7031 0.546875 41.5625 0.351562 41.8164C0.0195312 42.1875 0 42.8906 0 50C0 57.1094 0.0195312 57.8125 0.351562 58.1836C0.546875 58.4375 2.42188 59.2969 4.96094 60.3125L9.21875 62.0117L9.98047 64.1602C10.3906 65.3516 11.1719 67.207 11.6992 68.3203L12.6758 70.3125L10.8203 74.6484C9.43359 77.8711 9.00391 79.1211 9.08203 79.4922C9.23828 80.0977 19.5703 90.5078 20.3516 90.8398C20.8789 91.0547 21.2695 90.918 25.3125 89.1992L29.6875 87.3242L31.6992 88.3008C32.793 88.8281 34.6484 89.6094 35.8398 90.0195L37.9883 90.7812L39.6875 95.0391C40.7031 97.5781 41.5625 99.4531 41.8164 99.6484C42.1875 99.9805 42.8906 100 50 100C57.1094 100 57.8125 99.9805 58.1836 99.6484C58.4375 99.4531 59.2969 97.5781 60.3125 95.0391L62.0117 90.7812L64.1602 90.0195C65.3516 89.6094 67.207 88.8281 68.3203 88.3008L70.3125 87.3242L74.6484 89.1797C77.8711 90.5664 79.1211 90.9961 79.4922 90.918C80.0977 90.7617 90.5078 80.4297 90.8398 79.6484C91.0547 79.1211 90.918 78.7305 89.1992 74.6875L87.3242 70.3125L88.3008 68.3008C88.8281 67.207 89.6094 65.3516 90.0195 64.1602L90.7812 62.0117L95.0391 60.3125C97.5781 59.2969 99.4531 58.4375 99.668 58.1836C99.9805 57.8125 100 57.1094 100 50C100 42.8906 99.9805 42.1875 99.668 41.8164C99.4531 41.5625 97.5781 40.7031 95.0391 39.6875L90.7812 37.9883L90.0195 35.8398C89.6094 34.6484 88.8281 32.793 88.3008 31.6992L87.3242 29.6875L89.1992 25.3125C90.918 21.2695 91.0547 20.8789 90.8398 20.3516C90.5078 19.5703 80.0977 9.23828 79.4922 9.08203C79.1211 9.00391 77.8711 9.43359 74.6484 10.8203L70.3125 12.6758L68.3203 11.6992C67.207 11.1719 65.3516 10.3906 64.1602 9.98047L62.0117 9.21875L60.3125 4.96094C59.2969 2.42188 58.4375 0.546875 58.1836 0.332031C57.8125 0.0195312 57.1094 0 50 0C42.8906 0 42.1875 0.0195312 41.8164 0.332031ZM57.5977 6.11328C58.2812 7.85156 59.082 9.82422 59.3945 10.4883L59.9219 11.6992L61.3672 12.1094C63.3203 12.6953 66.7969 14.1211 68.4961 15.0586C69.2773 15.4688 70.0391 15.8203 70.1953 15.8203C70.3516 15.8203 72.3438 15.0195 74.6289 14.043L78.7695 12.2656L83.2422 16.7578L87.7344 21.2305L85.957 25.3711C84.9805 27.6562 84.1797 29.668 84.1797 29.8242C84.1797 30 84.5312 30.7617 84.9414 31.5234C85.8594 33.2031 87.3047 36.6602 87.8906 38.6328L88.3008 40.0781L89.5117 40.6055C90.1758 40.918 92.1484 41.7188 93.8867 42.4023L97.0703 43.6523V50V56.3477L93.8867 57.5977C92.1484 58.2812 90.1758 59.082 89.5117 59.3945L88.3008 59.9219L87.8906 61.3672C87.3047 63.3398 85.8594 66.7969 84.9414 68.4766C84.5312 69.2383 84.1797 70 84.1797 70.1758C84.1797 70.332 84.9805 72.3438 85.957 74.6289L87.7344 78.7695L83.2422 83.2422L78.7695 87.7344L74.6289 85.957C72.3438 84.9805 70.3516 84.1797 70.1953 84.1797C70.0391 84.1797 69.2773 84.5312 68.4961 84.9414C66.7969 85.8789 63.3203 87.3047 61.3672 87.8906L59.9219 88.3008L59.3945 89.5117C59.082 90.1758 58.2812 92.1484 57.5977 93.8867L56.3477 97.0703H50H43.6523L42.4023 93.8867C41.7188 92.1484 40.918 90.1953 40.625 89.5312L40.0977 88.3398L38.1836 87.7148C35.8789 86.9727 32.9492 85.7422 31.3281 84.8438C30.6836 84.4727 30.0195 84.1797 29.8633 84.1797C29.707 84.1797 27.7148 84.9805 25.4102 85.957L21.25 87.7539L16.7578 83.2617L12.2656 78.7695L14.043 74.6289C15.0195 72.3438 15.8203 70.3516 15.8203 70.1953C15.8203 70.0391 15.4688 69.2773 15.0586 68.4961C14.1211 66.7969 12.6953 63.3203 12.1094 61.3672L11.6992 59.9219L10.4883 59.3945C9.82422 59.082 7.85156 58.2812 6.11328 57.5977L2.92969 56.3477V50V43.6523L6.11328 42.4023C7.85156 41.7188 9.82422 40.918 10.4883 40.6055L11.6992 40.0781L12.1094 38.6328C12.6953 36.6797 14.1211 33.2031 15.0586 31.5039C15.4688 30.7227 15.8203 29.9609 15.8203 29.8047C15.8203 29.6484 15.0195 27.6562 14.043 25.3711L12.2656 21.2305L16.7578 16.7383L21.25 12.2461L25.4102 14.043C27.7148 15.0195 29.707 15.8203 29.8633 15.8203C30.0195 15.8203 30.6836 15.5273 31.3281 15.1562C32.9492 14.2578 35.8789 13.0273 38.1836 12.2852L40.0977 11.6602L40.625 10.4688C40.918 9.80469 41.7188 7.85156 42.4023 6.11328L43.6523 2.92969H50H56.3477L57.5977 6.11328Z" fill="white"/>
<path d="M46.4257 17.9885C29.5897 19.9416 17.0311 34.6291 17.8319 51.3674C18.5155 65.3127 27.7733 77.09 41.0546 80.9377C59.4921 86.2697 78.2225 74.5119 81.7772 55.4103C82.1874 53.1642 82.246 47.2658 81.8749 45.1174C80.0975 35.0392 74.4725 26.9143 65.7616 21.9143C60.1757 18.7307 52.8514 17.2268 46.4257 17.9885ZM55.7616 21.2893C67.4608 23.7502 76.2108 32.5197 78.7303 44.3361C79.1014 46.0353 79.1796 46.9924 79.1796 50.0002C79.1796 53.008 79.1014 53.965 78.7303 55.6642C76.2108 67.5197 67.5194 76.2111 55.6639 78.7307C52.7147 79.3752 47.285 79.3752 44.3358 78.7307C38.3007 77.4416 33.3397 74.7463 29.16 70.4885C27.246 68.5158 26.8944 68.1057 25.6444 66.2111C23.535 63.0666 22.1092 59.6096 21.2694 55.6642C20.6835 52.8908 20.6249 47.715 21.1717 44.8244C23.3202 33.301 32.1092 24.0627 43.3592 21.5041C46.2499 20.84 47.5194 20.7228 50.7811 20.801C52.8319 20.8596 54.4335 21.0158 55.7616 21.2893Z" fill="white"/>
<path d="M46.0352 23.9258C41.6211 24.6484 37.2656 26.4844 34.1992 28.9062C33.3398 29.5898 33.2031 29.7852 33.2031 30.3711C33.2031 31.1914 33.7695 31.8359 34.5117 31.8359C34.8242 31.8359 35.6836 31.4062 36.6016 30.7812C43.0664 26.4648 50.4102 25.4297 57.5391 27.832C63.2422 29.7461 68.2031 34.1016 70.9766 39.6094C72.6172 42.8906 73.3398 46.0352 73.3398 50C73.3398 53.0664 73.1055 54.6094 72.2461 57.2656C71.1133 60.7617 69.2383 63.8086 66.5234 66.5234C63.1055 69.9219 58.9844 72.1289 54.1992 73.0664C52.4219 73.418 47.5781 73.418 45.8008 73.0664C41.0156 72.1289 36.9141 69.9414 33.4766 66.5234C29.1992 62.2461 26.8945 56.9922 26.6211 50.8789C26.4062 45.7617 27.7539 41.1523 30.7812 36.6016C31.4062 35.6836 31.8359 34.8242 31.8359 34.5117C31.8359 33.7109 31.1719 33.1641 30.3125 33.2422C29.668 33.3008 29.4727 33.457 28.5547 34.668C26.6016 37.2656 24.8242 41.3867 24.082 45.0781C23.6133 47.4219 23.6133 52.5977 24.082 54.8828C25.1562 60.0586 27.3828 64.375 30.8594 68.0273C34.8047 72.1875 39.375 74.7266 45.1172 75.918C47.4023 76.3867 52.5391 76.3867 54.9219 75.918C60.1953 74.8633 64.7266 72.4219 68.5742 68.5742C72.4219 64.7266 74.7852 60.3516 75.918 54.8828C76.3867 52.5781 76.3867 47.4219 75.918 45.1172C75.1562 41.5039 73.7695 38.1641 71.7773 35.1562C70.5273 33.2812 66.7188 29.4727 64.8438 28.2227C61.8945 26.2695 58.3594 24.7852 55.0781 24.1211C52.9102 23.6914 48.125 23.5742 46.0352 23.9258Z" fill="white"/>
<path d="M41.1133 34.375C36.5039 37.0508 32.5586 39.4336 32.3828 39.668C32.0508 40.0586 32.0312 40.8398 32.0312 50.0195V59.9414L32.4805 60.4102C33.0469 61.0547 49.4922 70.5078 50 70.5078C50.5273 70.5078 66.9531 61.0547 67.5391 60.4297L67.9688 59.9414V50V40.0586L67.5391 39.5703C66.9141 38.8867 50.5078 29.4922 49.9609 29.5117C49.707 29.5117 45.7422 31.6992 41.1133 34.375ZM56.582 36.4453C60.2148 38.5352 63.2422 40.332 63.3203 40.3906C63.4961 40.5664 50.4492 48.125 50 48.125C49.6289 48.125 36.5039 40.5664 36.6406 40.4297C36.6992 40.3711 39.707 38.6133 43.3203 36.5039C46.9336 34.375 49.9219 32.6562 49.9414 32.6367C49.9414 32.6172 52.9297 34.3359 56.582 36.4453ZM41.7969 46.9531L48.3398 50.7422L48.3984 58.5742L48.4375 66.4258L47.3047 65.7812C46.6797 65.4297 43.6523 63.6914 40.5664 61.9141L34.9609 58.6914V50.918C34.9609 46.6602 35.0195 43.1641 35.1172 43.1641C35.1953 43.1641 38.2031 44.8633 41.7969 46.9531ZM65.0391 50.918V58.6914L59.4336 61.9141C56.3672 63.6914 53.3398 65.4297 52.6953 65.7812L51.5625 66.4258L51.6016 58.5938L51.6602 50.7422L58.2031 46.9531C61.7969 44.8828 64.8047 43.1641 64.9023 43.1641C64.9805 43.1641 65.0391 46.6602 65.0391 50.918Z" fill="white"/>
</svg>
