<svg width="100" height="100" viewBox="0 0 100 100" fill="none" xmlns="http://www.w3.org/2000/svg">
<g clip-path="url(#clip0_19:604)">
<path d="M34.4922 0.195312C26.3672 1.48438 19.7657 7.28516 17.5 15.1172C16.7774 17.5977 16.5039 20.4883 16.7969 22.8906C17.8125 31.7188 23.6914 38.5938 32.2266 40.9766C33.9063 41.4453 34.3946 41.5039 37.5 41.5039C41.3672 41.5039 42.8321 41.2109 45.8985 39.8633C55.3516 35.7227 60.3711 25 57.5 15.1172C55.4493 8.02734 49.7657 2.5 42.6758 0.664062C40.4883 0.117188 36.5235 -0.117188 34.4922 0.195312ZM41.5821 4.70703C47.6563 6.23047 52.5782 11.3867 53.8086 17.5586C54.2579 19.7266 54.1211 23.3008 53.5352 25.3516C51.9336 30.8594 47.6563 35.1562 42.0899 36.8359C40.5274 37.3047 40.0196 37.3633 37.5 37.3633C34.9805 37.3633 34.4727 37.3047 32.9102 36.8359C28.3789 35.4688 24.7266 32.4219 22.6563 28.3008C21.5235 26.0547 21.0743 24.3164 20.9571 21.5625C20.7422 16.7188 22.2071 12.793 25.5664 9.31641C29.7266 4.98047 35.7618 3.24219 41.5821 4.70703Z" fill="white"/>
<path d="M65.8203 46.2109C64.082 46.9531 63.5351 48.0664 63.1641 51.4453C63.0273 52.8516 62.8906 54.1992 62.8906 54.4336C62.8906 54.7656 62.6172 55.0195 61.7773 55.4492C61.1523 55.7617 60.332 56.2305 59.9414 56.5039L59.2383 56.9727L56.4648 55.7422C53.3594 54.3359 52.207 54.1602 50.8203 54.8633C49.7461 55.4102 49.4336 55.8398 47.2851 59.5508C45.1953 63.1836 44.9219 63.9844 45.3125 65.3906C45.6055 66.5234 46.3672 67.3242 48.9062 69.1602L51.0742 70.7422L51.0937 72.9102V75.0977L48.6523 76.8555C46.0351 78.7305 45.4297 79.4531 45.1953 80.9961C45.0195 82.1484 45.3125 82.8711 47.5195 86.6797C49.5312 90.1758 50.0391 90.7617 51.4453 91.2109C52.6367 91.582 53.7891 91.3281 56.6211 90.0391L59.2578 88.8477L59.7461 89.2188C60.0195 89.4141 60.8398 89.9023 61.543 90.293L62.832 91.0156L63.1445 94.082C63.5351 97.8125 63.8867 98.5547 65.625 99.4727L66.6992 100.02L71.1133 99.9609L75.5273 99.9023L76.3281 99.3555C77.8125 98.3789 78.125 97.6758 78.457 94.4922C78.8281 90.8203 78.8086 90.918 79.5117 90.625C79.8437 90.4883 80.6445 90.0195 81.2891 89.6094L82.4609 88.8477L85.1172 90.0586C86.7578 90.8203 88.1445 91.3086 88.7305 91.3672C89.9023 91.4844 91.1328 91.0352 91.9336 90.1758C92.5195 89.5508 95.3906 84.707 96.1133 83.1445C96.7969 81.6406 96.4258 79.6289 95.293 78.5742C95.0391 78.3398 93.8672 77.4609 92.7148 76.6211L90.5859 75.0977L90.5664 72.9297L90.5273 70.7617L92.8516 69.1211C95.3125 67.3828 95.8984 66.7578 96.2891 65.5469C96.7578 64.082 96.4648 63.1836 94.4141 59.6289C92.3828 56.0742 91.8945 55.4297 90.7812 54.8633C89.4336 54.1797 88.3203 54.3359 85.2344 55.7227L82.4805 56.9531L80.6445 55.8398L78.8086 54.7461L78.5547 52.1289C78.2422 48.8672 78.0664 48.2227 77.3047 47.3438C76.0937 45.9766 75.7422 45.8984 70.8594 45.8984C67.4219 45.918 66.3672 45.9766 65.8203 46.2109ZM74.2773 51.2109C74.9609 58.125 74.7656 57.6367 77.2266 58.7695C78.0859 59.1797 79.3555 59.9219 80.0391 60.4297C81.8359 61.7773 81.9531 61.7578 85.0976 60.3516C86.582 59.6875 88.0664 59.0234 88.418 58.8672L89.043 58.5938L90.6836 61.4844L92.3242 64.3555L91.0351 65.2734C87.0703 68.125 86.5039 68.5938 86.3086 69.082C86.1523 69.4727 86.1523 70.1172 86.3086 71.3086C86.4648 72.5195 86.4648 73.418 86.3086 74.5898C85.9961 76.8945 86.0351 76.9727 89.4531 79.4336L92.3242 81.5039L90.6836 84.375L89.0234 87.2656L85.8203 85.8203C84.0625 85.0195 82.3633 84.375 82.0703 84.375C81.7383 84.375 81.0351 84.7266 80.2539 85.2734C79.5703 85.7617 78.1836 86.582 77.1875 87.0703C75.957 87.6758 75.2734 88.125 75.1172 88.457C74.9609 88.7305 74.707 90.4492 74.5117 92.2852C74.3359 94.1016 74.1406 95.6641 74.082 95.7422C74.043 95.8398 72.5586 95.8984 70.8008 95.8984C67.6172 95.8984 67.5781 95.8984 67.5 95.4492C67.4414 95.2148 67.2656 93.6133 67.1094 91.9141C66.8945 89.8633 66.6992 88.6523 66.5039 88.3398C66.3281 88.0859 65.5273 87.5781 64.7266 87.207C63.9258 86.8359 62.8906 86.2891 62.4414 85.9766C61.9922 85.6641 61.2695 85.1758 60.8594 84.9023C60.4492 84.6094 59.8633 84.375 59.5703 84.375C59.2773 84.375 57.6562 84.9805 55.9766 85.7422C54.3164 86.4844 52.8516 87.1094 52.7539 87.1094C52.5195 87.1094 49.375 81.6602 49.5117 81.4648C49.5508 81.3672 50.8008 80.4297 52.2656 79.3945C53.7109 78.3398 55.0195 77.3047 55.1562 77.0703C55.332 76.7773 55.3906 75.6445 55.3711 72.8516C55.3516 70.7617 55.2734 68.9063 55.1953 68.75C55.1367 68.5938 53.7891 67.5391 52.2461 66.4063C50.6055 65.2344 49.4531 64.2578 49.4922 64.1211C49.5898 63.8867 52.5195 58.75 52.6367 58.6328C52.6562 58.6133 54.082 59.2188 55.7812 60C57.7539 60.8984 59.1406 61.4063 59.5703 61.4063C60.0781 61.4063 60.6641 61.1133 61.8945 60.2734C62.793 59.668 64.1211 58.8867 64.8633 58.5547C65.5859 58.2227 66.3281 57.7539 66.4844 57.5195C66.6797 57.207 66.8945 55.918 67.1094 53.7695C67.2851 51.9727 67.4414 50.3711 67.5 50.2344C67.5391 50.0586 68.3984 50 70.8594 50H74.1601L74.2773 51.2109Z" fill="white"/>
<path d="M68.8477 62.6953C67.5977 62.9492 66.1524 63.5546 64.9609 64.3359C61.8164 66.4453 59.9609 70.625 60.5469 74.2968C60.957 76.8164 61.7969 78.496 63.5742 80.2929C65.5664 82.3046 68.0274 83.2812 70.9961 83.2617C75.3711 83.2226 79.1016 80.5664 80.6055 76.4062C82.6953 70.664 79.1797 64.1992 73.2031 62.7929C71.8945 62.4804 70.1172 62.4414 68.8477 62.6953ZM73.5742 67.3828C78.2031 69.6484 78.1836 76.2304 73.5156 78.5351C72.7149 78.9257 72.2656 79.0039 70.8008 79.0039C69.3359 79.0039 68.8867 78.9257 68.1641 78.5351C66.0352 77.4414 64.8242 75.6054 64.6875 73.2421C64.5899 71.3671 65.0977 69.9218 66.2891 68.6718C68.3203 66.582 70.957 66.1132 73.5742 67.3828Z" fill="white"/>
<path d="M15.4883 50.293C11.5625 50.9961 8.35938 52.7148 5.46875 55.6445C2.94922 58.1836 1.34766 61.0156 0.449219 64.5703C0.136719 65.7812 0.0976562 67.0117 0.0976562 76.1133V86.3281L0.644531 86.8555L1.17188 87.4023H18.7305H36.2891L36.7969 86.9336C37.4805 86.2891 37.6562 85.2734 37.207 84.4531C37.0117 84.1016 36.7188 83.75 36.543 83.6523C36.3672 83.5742 29.0234 83.457 20.2148 83.3984L4.19922 83.3008V75C4.19922 67.832 4.25781 66.5234 4.55078 65.3906C5.66406 60.957 8.69141 57.3047 12.8125 55.4492C15.5469 54.1992 15.1562 54.2383 30.5859 54.1211C44.0039 54.0039 44.707 53.9844 45.0977 53.6328C45.7422 53.0469 45.9766 52.1094 45.625 51.3086C45.0586 49.9414 45.6836 50 30.5273 50.0195C20.2539 50.0391 16.543 50.0977 15.4883 50.293Z" fill="white"/>
</g>
<defs>
<clipPath id="clip0_19:604">
<rect width="100" height="100" fill="white"/>
</clipPath>
</defs>
</svg>
