<svg width="75" height="75" viewBox="0 0 75 75" fill="none" xmlns="http://www.w3.org/2000/svg">
<path d="M27.2314 0.219726C26.5869 0.571289 26.4844 1.05469 26.543 3.73535L26.5869 6.18164L26.9971 6.5332C27.2754 6.76758 27.583 6.88477 27.9785 6.88477C28.374 6.88477 28.6816 6.76758 28.96 6.5332L29.3701 6.18164L29.4141 3.73535C29.4726 1.02539 29.3701 0.55664 28.6963 0.219726C28.1836 -0.0585942 27.7295 -0.0439458 27.2314 0.219726Z" fill="white"/>
<path d="M6.8701 5.40527C6.416 5.87402 6.31346 6.50391 6.62108 7.0752C6.84081 7.5 9.47753 10.6934 9.87303 11.0156C10.0488 11.1621 10.4297 11.2793 10.7373 11.2793C11.8066 11.2793 12.4951 10.1221 11.9824 9.18457C11.6894 8.62793 8.92088 5.36133 8.58397 5.1709C8.02733 4.84863 7.33885 4.93652 6.8701 5.40527Z" fill="white"/>
<path d="M48.4717 5.25879C47.9297 5.68359 45.2051 9.05273 45.0733 9.46289C44.7803 10.3125 45.4688 11.2793 46.3623 11.2793C46.6553 11.2793 47.0068 11.2207 47.1533 11.1328C47.2998 11.0596 48.1641 10.1074 49.0576 9.00879C50.5225 7.20703 50.6836 6.95801 50.6836 6.43066C50.6836 5.25879 49.3506 4.55566 48.4717 5.25879Z" fill="white"/>
<path d="M25.1221 10.1221C23.5693 10.2832 21.3428 10.7666 19.6289 11.3086C17.8711 11.8652 14.7217 13.3594 13.2275 14.3555C10.5029 16.1719 7.4414 19.043 7.25097 19.9512C7.04589 20.8594 7.77831 21.6797 8.78906 21.6797C9.15527 21.6797 9.49218 21.416 10.8252 20.0977C13.1982 17.7539 15.6006 16.1133 18.4717 14.8828C30.2344 9.84374 43.7842 14.8096 49.541 26.2793C52.1924 31.5527 52.793 37.6172 51.2402 43.4033C50.9033 44.6924 50.874 44.7217 49.4531 44.8975C48.3252 45.0293 45.9228 45.7178 44.5459 46.2744L43.4619 46.7285H38.4668C35.7275 46.7285 32.9736 46.8018 32.373 46.875C27.9346 47.4463 25.2685 52.2217 27.1728 56.1768C27.3633 56.5723 27.4951 56.9238 27.4512 56.9678C27.4219 56.9971 23.2178 55.8398 18.1201 54.3896L8.8623 51.7383L8.01269 50.5225C4.61425 45.6445 3.208 39.2432 4.18945 33.1201C4.48242 31.2744 4.11621 30.6152 2.81249 30.6152C1.66992 30.6152 1.30371 31.5234 1.01074 35.083C0.732416 38.5547 1.18652 42.0996 2.34374 45.6006C2.97363 47.4902 4.08691 49.8633 4.99511 51.2695C5.31738 51.7676 5.5664 52.1924 5.5371 52.207C5.50781 52.2217 5.1416 52.4561 4.71679 52.7197C3.208 53.6719 2.19726 55.2393 1.88964 57.0996C1.47949 59.5459 2.90039 62.373 5.1123 63.4863C6.03515 63.9551 27.8027 71.499 29.4287 71.9238C31.4502 72.4365 33.3545 72.6562 35.8447 72.6562C38.042 72.6562 38.9502 72.5537 48.2519 71.2646C56.1767 70.166 58.6377 69.873 59.9853 69.873H61.6699V71.8506C61.6699 73.0664 61.7432 73.96 61.8457 74.1943C62.1973 74.9707 62.3877 75 67.9541 75H73.0957L73.5644 74.5752L74.0478 74.1504L74.0918 62.0068C74.1211 50.083 74.1211 49.8633 73.8281 49.3945C73.667 49.1309 73.3594 48.8525 73.1543 48.7793C72.9492 48.6914 70.7959 48.6328 68.1006 48.6328H63.4277L61.5527 47.6074C59.3262 46.3916 57.1289 45.498 55.3125 45.0879C54.5801 44.9121 53.9648 44.7656 53.9502 44.7656C53.9355 44.751 54.0527 44.2529 54.1992 43.6523C55.7666 37.5586 55.0781 30.9228 52.2949 25.2539C47.2705 14.9707 36.4453 8.93554 25.1221 10.1221ZM53.7598 47.7539C55.3711 48.0176 57.1142 48.6328 59.3994 49.8047L61.5967 50.9033L61.6406 58.9307L61.6699 66.9434H59.8828C58.4326 66.9434 56.3525 67.1924 48.5742 68.2764C40.3271 69.4336 38.6865 69.624 36.4453 69.6826C33.7939 69.7559 32.168 69.5947 30 69.0527C28.2861 68.6133 6.43066 60.9521 6.0498 60.6445C5.46386 60.1904 4.99511 59.4287 4.81933 58.623C4.45312 57.041 5.49316 55.3125 7.13378 54.8437C7.60253 54.7119 8.12988 54.6533 8.42285 54.6973C8.68652 54.7559 12.9346 55.9424 17.8564 57.3486L26.792 59.9121H35.4492H44.1211L44.5459 59.4873C45 59.0332 45.1172 58.2715 44.8242 57.7002C44.4434 57.0117 44.1797 56.9824 38.2031 56.9824C34.79 56.9824 32.373 56.9238 32.0508 56.8359C31.2305 56.6016 30.3076 55.8252 29.8975 55.0049C29.6045 54.4336 29.5166 54.0674 29.5166 53.3203C29.5312 52.1924 29.8828 51.416 30.7031 50.6836C31.7871 49.7314 31.6992 49.7461 38.3057 49.6436L44.3115 49.5703L46.1426 48.8672C49.0869 47.7393 51.4453 47.4023 53.7598 47.7539ZM71.1914 61.8164V72.0703H67.8955H64.5996V61.8164V51.5625H67.8955H71.1914V61.8164Z" fill="white"/>
<path d="M14.0479 24.0088C12.4658 24.5215 11.2061 25.7373 10.6055 27.3193C10.3564 27.9932 10.3271 28.5059 10.3271 33.3984V38.7451L10.8105 39.7266C11.3525 40.8252 12.3486 41.8213 13.418 42.3193C14.3994 42.7881 16.3916 43.0078 17.9443 42.8174C20.8008 42.4658 22.5879 40.7959 23.0127 38.0859C23.1152 37.3975 23.1445 35.4199 23.1152 32.5342C23.0566 28.3008 23.042 28.0078 22.7197 27.2168C22.2656 26.0449 21.167 24.8877 19.9512 24.2871C19.0137 23.8184 18.9111 23.8037 16.9189 23.7744C15.2344 23.7305 14.7217 23.7744 14.0479 24.0088ZM18.8086 26.9971C19.5117 27.3926 19.9072 27.9053 20.0684 28.6523C20.2734 29.4873 20.2441 37.2363 20.0537 38.0127C19.6875 39.4629 18.3545 40.1074 16.084 39.9463C14.4727 39.8145 13.8721 39.4629 13.4033 38.335C13.2275 37.8955 13.1836 37.0166 13.1836 33.2666C13.1836 30.4102 13.2422 28.5791 13.3447 28.3154C13.5498 27.7734 14.1797 27.1143 14.7217 26.8652C15 26.7481 15.7324 26.6748 16.6992 26.6748C18.0322 26.6602 18.3105 26.7041 18.8086 26.9971Z" fill="white"/>
<path d="M29.3848 24.3164C27.5244 25.0488 26.3965 27.1143 26.8066 29.0625C27.334 31.6406 30.249 33.1201 32.6074 32.0215C35.3906 30.7178 35.9473 27.1729 33.6768 25.1367C32.4609 24.0381 30.8643 23.7451 29.3848 24.3164ZM31.7285 27.3047C32.5928 28.0371 32.0508 29.4434 30.9082 29.4434C29.7656 29.4434 29.2236 28.0371 30.0879 27.3047C30.3076 27.1143 30.6738 26.9531 30.9082 26.9531C31.1426 26.9531 31.5088 27.1143 31.7285 27.3047Z" fill="white"/>
<path d="M4.36522 24.4043C3.10546 25.0781 3.6328 27.0996 5.0537 27.0996C6.50389 27.0996 7.00194 25.0488 5.71288 24.3897C5.18553 24.1113 4.87792 24.126 4.36522 24.4043Z" fill="white"/>
<path d="M35.6396 32.5488C31.2744 36.9141 27.6269 40.6641 27.5244 40.8984C27.1582 41.8066 27.8467 42.7734 28.8867 42.7734H29.5166L37.6318 34.6582L45.7471 26.543L45.6592 25.8984C45.542 25.0635 45.0293 24.6094 44.1943 24.6094H43.5791L35.6396 32.5488Z" fill="white"/>
<path d="M41.3525 35.3174C38.042 35.9619 36.8115 40.0195 39.2139 42.4219C41.1328 44.3555 44.4433 43.8574 45.7764 41.4404C46.1719 40.7373 46.2158 40.5176 46.2158 39.4043C46.2158 38.4082 46.1426 38.042 45.8935 37.5732C45.0146 35.9326 43.0957 34.9805 41.3525 35.3174ZM43.0664 38.6426C43.2275 38.833 43.3594 39.1992 43.3594 39.4336C43.3594 39.9902 42.6562 40.7226 42.1142 40.7226C41.5723 40.7226 40.8691 39.9902 40.8691 39.4336C40.8691 38.2617 42.3486 37.7197 43.0664 38.6426Z" fill="white"/>
</svg>
