<svg width="360" height="331" viewBox="0 0 360 331" fill="none" xmlns="http://www.w3.org/2000/svg">
<path d="M175.496 26.6381C175.496 4.74074 160.899 2.16608 142.652 2.16608H117.536V100.485C128.269 67.6407 175.496 63.7767 175.496 26.6381ZM85.3335 150.074L100.361 137.193V12.8994L85.3335 0.019408H142.652C175.067 0.019408 193.1 6.45941 193.1 29.4287C193.1 69.3567 117.536 69.3567 117.536 114.653V137.193L132.561 150.074H85.3335Z" fill="#010101"/>
<path d="M218.296 197.199L222.462 196.264Z" fill="#010101"/>
<path d="M216.277 197.551V194.409C211.589 195.656 206.619 196.327 201.369 196.327H199.103V198.855H201.369C206.416 198.855 211.397 198.399 216.277 197.551Z" fill="#010101"/>
<path d="M197.072 113.068C199.056 109.608 200.692 105.874 201.986 101.93H199.33C198.187 105.268 196.798 108.448 195.135 111.408L197.072 113.068Z" fill="#010101"/>
<path d="M228.116 189.723C225.763 190.997 223.301 192.081 220.755 193C219.908 194.333 219.125 195.717 218.42 197.163C219.84 196.879 221.249 196.556 222.649 196.201C224.247 193.901 226.068 191.741 228.116 189.723Z" fill="#214649"/>
<path d="M199.103 114.809V196.327H201.369C206.619 196.327 211.589 195.656 216.277 194.409V104.076H241.393C251.012 104.076 259.589 104.825 265.576 108.709C265.557 107.043 265.507 105.391 265.428 103.751C258.621 102.476 250.611 101.929 241.393 101.929H201.985C200.692 105.875 199.056 109.609 197.072 113.068L199.103 114.809Z" fill="#010101"/>
<path d="M291.841 131.338C291.841 123.896 289.918 118.213 286.257 113.897C285.65 132.382 280.342 148.412 271.786 161.414C283.206 153.754 291.841 144.826 291.841 131.338Z" fill="#010101"/>
<path d="M184.075 101.929L195.135 111.408C196.798 108.448 198.186 105.268 199.33 101.929H184.075Z" fill="#010101"/>
<path d="M216.277 202.394V197.55C211.397 198.398 206.416 198.854 201.369 198.854H199.103V239.102L184.076 251.984H231.305L216.277 239.102V216.562C216.277 208.492 218.707 201.877 222.649 196.201C221.249 196.556 219.84 196.878 218.419 197.162C217.607 198.828 216.877 200.56 216.277 202.394Z" fill="#010101"/>
<path d="M220.754 193.001C223.301 192.081 225.762 190.998 228.115 189.723C232.161 185.737 236.982 182.246 242.122 178.986C246.211 174.751 249.807 169.837 252.881 164.362C241.559 173.094 228.459 180.862 220.754 193.001Z" fill="#010101"/>
<path d="M216.277 197.551C216.993 197.425 217.708 197.304 218.419 197.163C219.125 195.717 219.908 194.333 220.753 193C219.292 193.528 217.803 194.004 216.277 194.409V197.551Z" fill="#214649"/>
<path d="M205.164 81.7715C204.734 83.3622 204.305 84.9542 203.877 86.5462C203.576 88.2142 203.201 89.9622 202.734 91.7782C201.76 95.5769 200.568 98.9675 199.33 101.929H201.985C204.018 95.7235 205.164 88.9755 205.164 81.7715Z" fill="#214649"/>
<path d="M286.257 113.898C286.296 112.72 286.34 111.544 286.34 110.346C286.34 56.2298 246.129 22.0911 201.369 22.0911H192.365L192.8 24.6191H201.369C239.467 24.6191 263.292 59.1125 265.428 103.75C274.805 105.504 281.831 108.682 286.257 113.898Z" fill="#214649"/>
<path d="M169.001 196.326V137.657C180.619 132.982 190.567 124.411 197.073 113.069L195.135 111.409C189.075 122.193 179.797 130.33 169.001 134.875V24.6182H175.449L175.269 22.0902H158.885C122.471 22.0902 94.906 46.8728 94.906 81.7715C94.906 91.5515 96.9193 100.489 100.362 108.354V101.351L100.485 101.539C98.5527 95.4728 97.4353 88.8675 97.4353 81.7715C97.4353 51.4235 118.677 29.4235 148.771 25.3768V139.175C137.274 139.175 126.302 134.895 117.458 127.413L117.535 127.531V130.706C126.499 137.697 137.355 141.703 148.771 141.703V183.682L131.067 198.854H199.103V196.326H169.001Z" fill="#214649"/>
<path d="M274.238 128.548C274.238 118.193 270.947 112.193 265.576 108.709C265.583 109.256 265.603 109.797 265.603 110.347C265.603 130.947 274.238 145.4 274.238 128.548Z" fill="#214649"/>
<path d="M228.116 189.723C226.068 191.741 224.247 193.901 222.649 196.201C242.549 191.165 260.155 179.089 271.787 161.415C262.684 167.52 251.828 172.832 242.121 178.987C237.949 183.307 233.272 186.931 228.116 189.723Z" fill="#214649"/>
<path d="M121.866 71.8639C121.866 61.5105 118.575 55.5092 113.205 52.0252C113.211 52.5719 113.231 53.1132 113.231 53.6625C113.231 74.2625 121.866 88.7159 121.866 71.8639Z" fill="#214649"/>
<path d="M7.72299 310.691V317.24C7.72299 318.654 7.87773 319.533 8.1872 319.876C8.60721 320.362 9.24274 320.605 10.0938 320.605H10.9559V321.219H1.32346V320.605H2.16899C2.6332 320.605 3.03663 320.528 3.37926 320.373C3.73295 320.218 4.00927 319.986 4.20822 319.677C4.42927 319.323 4.5398 318.511 4.5398 317.24V302.716C4.5398 301.313 4.39059 300.434 4.09216 300.08C3.66111 299.594 3.02005 299.351 2.16899 299.351H1.32346V298.737H9.56327C11.5638 298.737 13.1499 298.947 14.3215 299.367C14.8962 299.577 15.4323 299.859 15.9296 300.213C16.427 300.567 16.8636 300.987 17.2394 301.473C17.6152 301.948 17.9081 302.479 18.1181 303.065C18.3391 303.65 18.4497 304.28 18.4497 304.955C18.4497 305.872 18.2949 306.712 17.9855 307.475C17.676 308.226 17.2228 308.878 16.626 309.431C16.0402 309.973 15.3162 310.398 14.4541 310.708C13.592 311.006 12.6083 311.155 11.503 311.155C10.3977 311.155 9.13774 311 7.72299 310.691ZM7.72299 309.746C8.31984 309.856 8.83931 309.939 9.28142 309.995C9.73459 310.05 10.1214 310.078 10.442 310.078C11.0167 310.078 11.5583 309.961 12.0667 309.729C12.5862 309.486 13.0338 309.155 13.4096 308.735C13.7965 308.304 14.1004 307.795 14.3215 307.209C14.5536 306.624 14.6696 305.982 14.6696 305.286C14.6696 304.468 14.5481 303.739 14.3049 303.098C14.0617 302.446 13.7246 301.899 13.2936 301.456C12.8625 301.003 12.3541 300.661 11.7683 300.428C11.1935 300.196 10.5691 300.08 9.89485 300.08C9.60748 300.08 9.28142 300.108 8.91668 300.163C8.563 300.207 8.1651 300.285 7.72299 300.395V309.746Z" fill="#010101"/>
<path d="M30.7393 317.544H24.5222L23.4327 320.078C23.1643 320.694 23.0301 321.159 23.0301 321.475C23.0301 321.601 23.0498 321.72 23.0893 321.83C23.1366 321.933 23.2274 322.032 23.3616 322.126C23.4958 322.213 23.6853 322.288 23.9301 322.351C24.1748 322.407 24.4945 322.45 24.8893 322.482V322.92H19.8327V322.482C20.4958 322.363 20.93 322.209 21.1353 322.02C21.3406 321.83 21.5498 321.546 21.7629 321.167C21.984 320.78 22.2208 320.295 22.4735 319.711L28.1222 306.495H28.5367L34.1262 319.853C34.3551 320.405 34.5643 320.851 34.7538 321.191C34.9512 321.523 35.1525 321.783 35.3578 321.973C35.563 322.154 35.7841 322.28 36.0209 322.351C36.2657 322.423 36.5538 322.466 36.8854 322.482V322.92H30.5498V322.482C30.8656 322.466 31.1301 322.43 31.3433 322.375C31.5564 322.32 31.7222 322.249 31.8406 322.162C31.967 322.075 32.0538 321.976 32.1012 321.866C32.1564 321.755 32.1841 321.633 32.1841 321.499C32.192 321.325 32.1525 321.104 32.0656 320.836C31.9867 320.559 31.8683 320.232 31.7104 319.853L30.7393 317.544ZM30.4077 316.667L27.684 310.178L24.8893 316.667H30.4077ZM53.5592 322.92H49.2723L43.8368 315.412C43.6315 315.42 43.446 315.428 43.2802 315.436C43.1223 315.436 42.9802 315.436 42.8539 315.436C42.7512 315.436 42.6407 315.436 42.5223 315.436C42.4039 315.428 42.2815 315.42 42.1552 315.412V320.078C42.1552 321.088 42.2657 321.716 42.4868 321.961C42.7868 322.308 43.2368 322.482 43.8368 322.482H44.4644V322.92H37.5841V322.482H38.1881C38.8591 322.482 39.3446 322.261 39.6446 321.819C39.8104 321.574 39.8933 320.994 39.8933 320.078V309.704C39.8933 308.694 39.7828 308.066 39.5617 307.821C39.2538 307.474 38.796 307.3 38.1881 307.3H37.5841V306.862H43.4341C45.1236 306.862 46.3789 306.988 47.2 307.241C47.6026 307.359 47.9776 307.537 48.325 307.774C48.6802 308.011 48.9881 308.291 49.2487 308.615C49.5171 308.938 49.7263 309.301 49.8763 309.704C50.0342 310.107 50.1131 310.537 50.1131 310.995C50.1131 311.492 50.0342 311.958 49.8763 312.392C49.7184 312.819 49.4737 313.209 49.1421 313.565C48.8184 313.92 48.4079 314.228 47.9105 314.488C47.4131 314.749 46.8289 314.954 46.1578 315.104L49.4737 319.711C50.2395 320.776 50.8908 321.479 51.4276 321.819C51.9803 322.166 52.6908 322.387 53.5592 322.482V322.92ZM42.1552 314.666C42.3052 314.666 42.4354 314.67 42.546 314.678C42.6565 314.678 42.7473 314.678 42.8183 314.678C43.5841 314.678 44.2552 314.591 44.8315 314.417C45.4157 314.236 45.9013 313.987 46.2881 313.671C46.675 313.355 46.9631 312.984 47.1526 312.558C47.35 312.124 47.4486 311.654 47.4486 311.149C47.4486 310.651 47.3657 310.197 47.2 309.787C47.0342 309.369 46.7973 309.009 46.4894 308.709C46.1894 308.409 45.8263 308.176 45.3999 308.011C44.9815 307.845 44.5197 307.762 44.0144 307.762C43.7855 307.762 43.517 307.782 43.2091 307.821C42.9012 307.853 42.5499 307.908 42.1552 307.987V314.666ZM67.379 306.862V310.628H67.1067C67.0435 310.122 66.9369 309.696 66.7869 309.349C66.6448 308.994 66.4554 308.709 66.2185 308.496C65.9817 308.275 65.6935 308.117 65.354 308.022C65.0146 307.92 64.6198 307.869 64.1698 307.869H61.908V320.137C61.908 321.124 62.0145 321.74 62.2277 321.984C62.5198 322.316 62.9816 322.482 63.6132 322.482H64.1698V322.92H57.3606V322.482H57.929C58.6079 322.482 59.0895 322.276 59.3737 321.866C59.5474 321.621 59.6343 321.045 59.6343 320.137V307.869H57.704C57.2145 307.869 56.7882 307.904 56.425 307.975C56.0619 308.046 55.754 308.18 55.5013 308.378C55.2487 308.575 55.0434 308.855 54.8855 309.219C54.7276 309.582 54.6092 310.051 54.5303 310.628H54.0803V306.862H67.379ZM75.6567 322.482V322.92H68.7764V322.482H69.3448C70.0159 322.482 70.4975 322.288 70.7896 321.901C70.9791 321.657 71.0738 321.049 71.0738 320.078V309.704C71.0738 309.325 71.0659 309.017 71.0501 308.78C71.0343 308.544 71.0028 308.35 70.9554 308.2C70.9159 308.042 70.8528 307.92 70.7659 307.833C70.687 307.746 70.5764 307.663 70.4343 307.584C70.087 307.395 69.7238 307.3 69.3448 307.3H68.7764V306.862H75.6567V307.3H75.0765C74.4133 307.3 73.9357 307.494 73.6436 307.88C73.4462 308.125 73.3475 308.733 73.3475 309.704V320.078C73.3475 320.457 73.3554 320.765 73.3712 321.001C73.387 321.238 73.4146 321.432 73.4541 321.582C73.5015 321.732 73.5686 321.854 73.6554 321.949C73.7422 322.036 73.8567 322.119 73.9988 322.198C74.3383 322.387 74.6975 322.482 75.0765 322.482H75.6567ZM90.2818 306.862V310.628H90.0095C89.9463 310.122 89.8397 309.696 89.6897 309.349C89.5476 308.994 89.3581 308.709 89.1213 308.496C88.8845 308.275 88.5963 308.117 88.2568 308.022C87.9173 307.92 87.5226 307.869 87.0726 307.869H84.8107V320.137C84.8107 321.124 84.9173 321.74 85.1305 321.984C85.4226 322.316 85.8844 322.482 86.516 322.482H87.0726V322.92H80.2633V322.482H80.8318C81.5107 322.482 81.9923 322.276 82.2765 321.866C82.4502 321.621 82.537 321.045 82.537 320.137V307.869H80.6068C80.1173 307.869 79.691 307.904 79.3278 307.975C78.9646 308.046 78.6568 308.18 78.4041 308.378C78.1515 308.575 77.9462 308.855 77.7883 309.219C77.6304 309.582 77.512 310.051 77.4331 310.628H76.9831V306.862H90.2818ZM98.5595 322.482V322.92H91.6792V322.482H92.2476C92.9187 322.482 93.4003 322.288 93.6924 321.901C93.8819 321.657 93.9766 321.049 93.9766 320.078V309.704C93.9766 309.325 93.9687 309.017 93.9529 308.78C93.9371 308.544 93.9055 308.35 93.8582 308.2C93.8187 308.042 93.7555 307.92 93.6687 307.833C93.5897 307.746 93.4792 307.663 93.3371 307.584C92.9897 307.395 92.6266 307.3 92.2476 307.3H91.6792V306.862H98.5595V307.3H97.9793C97.3161 307.3 96.8385 307.494 96.5463 307.88C96.349 308.125 96.2503 308.733 96.2503 309.704V320.078C96.2503 320.457 96.2582 320.765 96.274 321.001C96.2898 321.238 96.3174 321.432 96.3569 321.582C96.4042 321.732 96.4713 321.854 96.5582 321.949C96.645 322.036 96.7595 322.119 96.9016 322.198C97.2411 322.387 97.6003 322.482 97.9793 322.482H98.5595ZM108.021 306.495C110.098 306.495 111.902 307.288 113.433 308.875C114.965 310.454 115.731 312.428 115.731 314.796C115.731 317.236 114.961 319.261 113.421 320.871C111.882 322.482 110.019 323.287 107.832 323.287C105.614 323.287 103.754 322.501 102.254 320.93C100.754 319.359 100.004 317.326 100.004 314.832C100.004 312.282 100.873 310.201 102.61 308.591C104.117 307.193 105.921 306.495 108.021 306.495ZM107.796 307.359C106.983 307.359 106.261 307.533 105.629 307.88C104.998 308.228 104.465 308.725 104.031 309.372C103.604 310.012 103.277 310.79 103.048 311.705C102.827 312.621 102.716 313.647 102.716 314.784C102.716 315.913 102.827 316.948 103.048 317.887C103.269 318.826 103.592 319.636 104.019 320.315C104.453 320.986 104.986 321.511 105.617 321.89C106.249 322.261 106.979 322.446 107.808 322.446C108.55 322.446 109.237 322.304 109.869 322.02C110.508 321.736 111.061 321.298 111.527 320.705C111.993 320.105 112.356 319.344 112.616 318.42C112.885 317.496 113.019 316.395 113.019 315.116C113.019 313.892 112.908 312.803 112.687 311.847C112.474 310.884 112.146 310.071 111.704 309.408C111.27 308.745 110.725 308.24 110.07 307.892C109.423 307.537 108.665 307.359 107.796 307.359ZM116.358 306.862H120.716L130.533 318.905V309.645C130.533 308.658 130.423 308.042 130.202 307.797C129.902 307.466 129.44 307.3 128.816 307.3H128.26V306.862H133.849V307.3H133.281C132.602 307.3 132.12 307.505 131.836 307.916C131.662 308.161 131.576 308.737 131.576 309.645V323.18H131.149L120.562 310.249V320.137C120.562 321.124 120.669 321.74 120.882 321.984C121.174 322.316 121.636 322.482 122.268 322.482H122.836V322.92H117.246V322.482H117.803C118.49 322.482 118.975 322.276 119.26 321.866C119.433 321.621 119.52 321.045 119.52 320.137V308.97C119.283 308.694 119.086 308.472 118.928 308.307C118.77 308.141 118.62 308.007 118.478 307.904C118.336 307.794 118.182 307.707 118.016 307.644C117.85 307.572 117.645 307.494 117.4 307.407C117.171 307.336 116.824 307.3 116.358 307.3V306.862Z" fill="#010101"/>
<path d="M139.333 321.219V320.605H140.178C141.118 320.605 141.792 320.301 142.201 319.693C142.444 319.34 142.566 318.522 142.566 317.24V302.716C142.566 301.302 142.411 300.423 142.102 300.08C141.671 299.594 141.03 299.351 140.178 299.351H139.333V298.737H148.485C151.845 298.737 154.398 299.119 156.144 299.881C157.902 300.644 159.311 301.915 160.372 303.695C161.444 305.463 161.98 307.519 161.98 309.862C161.98 311.52 161.709 313.045 161.168 314.438C160.637 315.83 159.841 317.03 158.78 318.036C157.73 319.03 156.415 319.809 154.834 320.373C153.265 320.937 151.447 321.219 149.38 321.219H139.333ZM145.749 319.594C147.131 319.903 148.308 320.058 149.28 320.058C150.551 320.058 151.729 319.826 152.812 319.362C153.906 318.887 154.851 318.218 155.647 317.356C156.443 316.483 157.067 315.427 157.52 314.189C157.973 312.951 158.2 311.564 158.2 310.028C158.2 308.48 157.973 307.088 157.52 305.85C157.078 304.612 156.454 303.562 155.647 302.7C154.851 301.827 153.895 301.158 152.779 300.694C151.673 300.23 150.463 299.997 149.148 299.997C148.65 299.997 148.12 300.042 147.556 300.13C146.992 300.207 146.39 300.323 145.749 300.478V319.594Z" fill="#010101"/>
<path d="M168.341 307.738V314.086H171.87C172.383 314.086 172.797 314.042 173.113 313.955C173.437 313.861 173.689 313.719 173.871 313.529C174.052 313.332 174.179 313.087 174.25 312.795C174.321 312.503 174.368 312.155 174.392 311.753H174.83V317.342H174.392C174.337 316.948 174.281 316.628 174.226 316.383C174.171 316.13 174.116 315.949 174.06 315.838C173.989 315.696 173.898 315.574 173.788 315.471C173.677 315.361 173.535 315.266 173.362 315.187C173.188 315.108 172.979 315.049 172.734 315.009C172.489 314.97 172.201 314.95 171.87 314.95H168.341V320.244C168.341 320.946 168.372 321.38 168.435 321.546C168.467 321.617 168.506 321.684 168.554 321.748C168.601 321.811 168.668 321.866 168.755 321.913C168.85 321.953 168.968 321.984 169.11 322.008C169.26 322.032 169.446 322.044 169.667 322.044H172.391C172.856 322.044 173.243 322.032 173.551 322.008C173.867 321.976 174.139 321.929 174.368 321.866C174.605 321.795 174.81 321.7 174.984 321.582C175.166 321.455 175.355 321.298 175.552 321.108C175.797 320.871 176.046 320.567 176.298 320.196C176.551 319.825 176.804 319.391 177.056 318.894H177.53L176.145 322.92H163.769V322.482H164.338C164.488 322.482 164.646 322.466 164.812 322.434C164.977 322.403 165.131 322.351 165.273 322.28C165.423 322.209 165.558 322.123 165.676 322.02C165.794 321.909 165.877 321.783 165.925 321.641C166.019 321.396 166.067 320.879 166.067 320.09V309.657C166.067 308.646 165.964 308.019 165.759 307.774C165.475 307.458 165.001 307.3 164.338 307.3H163.769V306.862H176.145V310.379H175.86C175.773 309.953 175.687 309.601 175.6 309.325C175.513 309.049 175.414 308.82 175.304 308.638C175.193 308.457 175.067 308.315 174.925 308.212C174.783 308.101 174.613 308.003 174.416 307.916C174.092 307.797 173.535 307.738 172.746 307.738H168.341ZM189.218 306.495V312.049H188.78C188.638 310.983 188.381 310.134 188.01 309.503C187.829 309.187 187.6 308.903 187.324 308.65C187.055 308.397 186.759 308.184 186.435 308.011C186.12 307.829 185.78 307.691 185.417 307.596C185.062 307.494 184.703 307.442 184.339 307.442C183.937 307.442 183.562 307.513 183.214 307.655C182.867 307.79 182.563 307.971 182.302 308.2C182.05 308.429 181.852 308.694 181.71 308.994C181.568 309.286 181.497 309.59 181.497 309.905C181.497 310.347 181.6 310.734 181.805 311.066C182.01 311.39 182.291 311.69 182.646 311.966C183.009 312.242 183.431 312.511 183.913 312.771C184.403 313.032 184.931 313.312 185.5 313.612C186.139 313.951 186.747 314.283 187.324 314.607C187.9 314.93 188.405 315.29 188.839 315.684C189.281 316.071 189.633 316.517 189.893 317.023C190.154 317.52 190.284 318.12 190.284 318.823C190.284 319.423 190.158 319.995 189.905 320.54C189.66 321.076 189.313 321.55 188.863 321.961C188.421 322.363 187.888 322.683 187.264 322.92C186.649 323.165 185.97 323.287 185.228 323.287C184.951 323.287 184.714 323.283 184.517 323.275C184.32 323.267 184.13 323.248 183.949 323.216C183.767 323.192 183.577 323.149 183.38 323.086C183.191 323.03 182.962 322.952 182.693 322.849C182.504 322.778 182.31 322.715 182.113 322.659C181.916 322.596 181.734 322.545 181.568 322.505C181.402 322.466 181.26 322.434 181.142 322.411C181.031 322.387 180.96 322.375 180.929 322.375C180.731 322.375 180.574 322.434 180.455 322.553C180.345 322.671 180.262 322.916 180.206 323.287H179.768V317.78H180.206C180.309 318.357 180.427 318.862 180.562 319.296C180.704 319.723 180.862 320.082 181.035 320.374C181.209 320.658 181.434 320.923 181.71 321.167C181.987 321.412 182.295 321.625 182.634 321.807C182.981 321.98 183.352 322.119 183.747 322.221C184.15 322.316 184.56 322.363 184.979 322.363C185.476 322.363 185.922 322.292 186.317 322.15C186.712 322.008 187.047 321.819 187.324 321.582C187.6 321.337 187.809 321.057 187.951 320.741C188.101 320.417 188.176 320.082 188.176 319.734C188.176 319.221 188.07 318.791 187.856 318.444C187.643 318.088 187.355 317.773 186.992 317.496C186.637 317.22 186.218 316.955 185.737 316.703C185.263 316.45 184.762 316.166 184.233 315.85C183.633 315.495 183.052 315.159 182.492 314.844C181.939 314.52 181.45 314.169 181.024 313.79C180.597 313.403 180.254 312.965 179.993 312.475C179.741 311.986 179.614 311.401 179.614 310.722C179.614 310.154 179.733 309.613 179.97 309.1C180.206 308.587 180.534 308.137 180.952 307.75C181.371 307.363 181.864 307.059 182.433 306.838C183.009 306.609 183.637 306.495 184.316 306.495C185.153 306.495 186.056 306.704 187.028 307.122C187.454 307.32 187.766 307.418 187.963 307.418C188.168 307.418 188.334 307.359 188.46 307.241C188.595 307.115 188.701 306.866 188.78 306.495H189.218ZM199.083 322.482V322.92H192.203V322.482H192.771C193.442 322.482 193.924 322.288 194.216 321.901C194.405 321.657 194.5 321.049 194.5 320.078V309.704C194.5 309.325 194.492 309.017 194.476 308.78C194.46 308.544 194.429 308.35 194.382 308.2C194.342 308.042 194.279 307.92 194.192 307.833C194.113 307.746 194.003 307.663 193.86 307.584C193.513 307.395 193.15 307.3 192.771 307.3H192.203V306.862H199.083V307.3H198.503C197.839 307.3 197.362 307.494 197.07 307.88C196.872 308.125 196.774 308.733 196.774 309.704V320.078C196.774 320.457 196.782 320.765 196.797 321.001C196.813 321.238 196.841 321.432 196.88 321.582C196.928 321.732 196.995 321.854 197.082 321.949C197.168 322.036 197.283 322.119 197.425 322.198C197.764 322.387 198.124 322.482 198.503 322.482H199.083ZM214.561 306.495L214.975 311.563H214.561C214.15 310.308 213.609 309.357 212.938 308.709C211.975 307.786 210.747 307.324 209.255 307.324C207.211 307.324 205.655 308.133 204.589 309.751C203.697 311.117 203.251 312.744 203.251 314.63C203.251 316.162 203.547 317.559 204.139 318.823C204.4 319.383 204.712 319.888 205.075 320.338C205.438 320.788 205.845 321.171 206.295 321.487C206.745 321.803 207.23 322.048 207.751 322.221C208.28 322.395 208.837 322.482 209.421 322.482C210.013 322.482 210.582 322.407 211.126 322.257C211.679 322.107 212.216 321.886 212.737 321.594V316.951C212.737 316.541 212.721 316.213 212.69 315.969C212.658 315.716 212.611 315.515 212.547 315.365C212.492 315.215 212.413 315.1 212.311 315.021C212.216 314.942 212.105 314.871 211.979 314.808C211.726 314.674 211.276 314.607 210.629 314.607V314.157H216.846V314.607H216.55C216.282 314.607 216.053 314.638 215.863 314.701C215.674 314.757 215.516 314.867 215.39 315.033C215.271 315.199 215.184 315.436 215.129 315.744C215.074 316.051 215.046 316.454 215.046 316.951V321.866C214.572 322.119 214.115 322.336 213.672 322.517C213.23 322.691 212.78 322.833 212.322 322.944C211.872 323.062 211.407 323.149 210.925 323.204C210.451 323.259 209.946 323.287 209.409 323.287C206.307 323.287 203.95 322.292 202.339 320.303C201.132 318.811 200.528 317.09 200.528 315.14C200.528 314.595 200.583 314.05 200.693 313.505C200.804 312.953 200.962 312.416 201.167 311.895C201.372 311.374 201.625 310.876 201.925 310.403C202.225 309.921 202.561 309.479 202.932 309.076C203.721 308.192 204.621 307.541 205.632 307.122C206.65 306.704 207.783 306.495 209.03 306.495C209.401 306.495 209.725 306.511 210.001 306.542C210.278 306.566 210.546 306.609 210.807 306.672C211.067 306.728 211.34 306.807 211.624 306.909C211.916 307.004 212.259 307.122 212.654 307.265C213.088 307.43 213.384 307.513 213.542 307.513C213.692 307.513 213.818 307.446 213.921 307.312C214.032 307.17 214.099 306.897 214.122 306.495H214.561ZM216.882 306.862H221.24L231.057 318.905V309.645C231.057 308.658 230.946 308.042 230.725 307.797C230.425 307.466 229.963 307.3 229.34 307.3H228.783V306.862H234.373V307.3H233.804C233.125 307.3 232.644 307.505 232.359 307.916C232.186 308.161 232.099 308.737 232.099 309.645V323.18H231.673L221.086 310.249V320.137C221.086 321.124 221.192 321.74 221.405 321.984C221.697 322.316 222.159 322.482 222.791 322.482H223.359V322.92H217.77V322.482H218.326C219.013 322.482 219.499 322.276 219.783 321.866C219.957 321.621 220.044 321.045 220.044 320.137V308.97C219.807 308.694 219.609 308.472 219.451 308.307C219.294 308.141 219.144 308.007 219.001 307.904C218.859 307.794 218.705 307.707 218.54 307.644C218.374 307.572 218.169 307.494 217.924 307.407C217.695 307.336 217.347 307.3 216.882 307.3V306.862Z" fill="#010101"/>
<path d="M247.708 310.691V317.24C247.708 318.654 247.863 319.533 248.172 319.876C248.592 320.362 249.228 320.605 250.079 320.605H250.941V321.219H241.308V320.605H242.154C242.618 320.605 243.022 320.528 243.364 320.373C243.718 320.218 243.994 319.986 244.193 319.677C244.414 319.323 244.525 318.511 244.525 317.24V302.716C244.525 301.313 244.376 300.434 244.077 300.08C243.646 299.594 243.005 299.351 242.154 299.351H241.308V298.737H249.548C251.549 298.737 253.135 298.947 254.306 299.367C254.881 299.577 255.417 299.859 255.915 300.213C256.412 300.567 256.849 300.987 257.224 301.473C257.6 301.948 257.893 302.479 258.103 303.065C258.324 303.65 258.435 304.28 258.435 304.955C258.435 305.872 258.28 306.712 257.97 307.475C257.661 308.226 257.208 308.878 256.611 309.431C256.025 309.973 255.301 310.398 254.439 310.708C253.577 311.006 252.593 311.155 251.488 311.155C250.383 311.155 249.123 311 247.708 310.691ZM247.708 309.746C248.305 309.856 248.824 309.939 249.266 309.995C249.72 310.05 250.106 310.078 250.427 310.078C251.002 310.078 251.543 309.961 252.052 309.729C252.571 309.486 253.019 309.155 253.395 308.735C253.781 308.304 254.085 307.795 254.306 307.209C254.539 306.624 254.655 305.982 254.655 305.286C254.655 304.468 254.533 303.739 254.29 303.098C254.047 302.446 253.71 301.899 253.279 301.456C252.847 301.003 252.339 300.661 251.753 300.428C251.179 300.196 250.554 300.08 249.88 300.08C249.592 300.08 249.266 300.108 248.902 300.163C248.548 300.207 248.15 300.285 247.708 300.395V309.746Z" fill="#010101"/>
<path d="M276.017 322.92H271.73L266.295 315.412C266.089 315.42 265.904 315.428 265.738 315.436C265.58 315.436 265.438 315.436 265.312 315.436C265.209 315.436 265.099 315.436 264.98 315.436C264.862 315.428 264.739 315.42 264.613 315.412V320.078C264.613 321.088 264.724 321.716 264.945 321.961C265.245 322.308 265.695 322.482 266.295 322.482H266.922V322.92H260.042V322.482H260.646C261.317 322.482 261.803 322.261 262.103 321.819C262.268 321.574 262.351 320.994 262.351 320.078V309.704C262.351 308.694 262.241 308.066 262.02 307.821C261.712 307.474 261.254 307.3 260.646 307.3H260.042V306.862H265.892C267.582 306.862 268.837 306.988 269.658 307.241C270.061 307.359 270.436 307.537 270.783 307.774C271.138 308.011 271.446 308.291 271.707 308.615C271.975 308.938 272.184 309.301 272.334 309.704C272.492 310.107 272.571 310.537 272.571 310.995C272.571 311.492 272.492 311.958 272.334 312.392C272.176 312.819 271.932 313.209 271.6 313.565C271.276 313.92 270.866 314.228 270.368 314.488C269.871 314.749 269.287 314.954 268.616 315.104L271.932 319.711C272.697 320.776 273.349 321.479 273.886 321.819C274.438 322.166 275.149 322.387 276.017 322.482V322.92ZM264.613 314.666C264.763 314.666 264.893 314.67 265.004 314.678C265.114 314.678 265.205 314.678 265.276 314.678C266.042 314.678 266.713 314.591 267.289 314.417C267.874 314.236 268.359 313.987 268.746 313.671C269.133 313.355 269.421 312.984 269.611 312.558C269.808 312.124 269.907 311.654 269.907 311.149C269.907 310.651 269.824 310.197 269.658 309.787C269.492 309.369 269.255 309.009 268.947 308.709C268.647 308.409 268.284 308.176 267.858 308.011C267.439 307.845 266.978 307.762 266.472 307.762C266.243 307.762 265.975 307.782 265.667 307.821C265.359 307.853 265.008 307.908 264.613 307.987V314.666ZM284.674 306.495C286.75 306.495 288.554 307.288 290.086 308.875C291.617 310.454 292.383 312.428 292.383 314.796C292.383 317.236 291.613 319.261 290.074 320.871C288.534 322.482 286.671 323.287 284.484 323.287C282.266 323.287 280.407 322.501 278.907 320.93C277.407 319.359 276.657 317.326 276.657 314.832C276.657 312.282 277.525 310.201 279.262 308.591C280.77 307.193 282.574 306.495 284.674 306.495ZM284.449 307.359C283.636 307.359 282.913 307.533 282.282 307.88C281.65 308.228 281.117 308.725 280.683 309.372C280.257 310.012 279.929 310.79 279.7 311.705C279.479 312.621 279.368 313.647 279.368 314.784C279.368 315.913 279.479 316.948 279.7 317.887C279.921 318.826 280.245 319.636 280.671 320.315C281.105 320.986 281.638 321.511 282.27 321.89C282.901 322.261 283.632 322.446 284.461 322.446C285.203 322.446 285.89 322.304 286.521 322.02C287.161 321.736 287.713 321.298 288.179 320.705C288.645 320.105 289.008 319.344 289.269 318.42C289.537 317.496 289.671 316.395 289.671 315.116C289.671 313.892 289.561 312.803 289.34 311.847C289.126 310.884 288.799 310.071 288.357 309.408C287.922 308.745 287.378 308.24 286.722 307.892C286.075 307.537 285.317 307.359 284.449 307.359ZM293.745 322.92V322.482H294.349C295.02 322.482 295.501 322.265 295.794 321.83C295.967 321.578 296.054 320.994 296.054 320.078V309.704C296.054 308.694 295.944 308.066 295.723 307.821C295.415 307.474 294.957 307.3 294.349 307.3H293.745V306.862H300.282C302.682 306.862 304.506 307.134 305.753 307.679C307.008 308.224 308.015 309.132 308.773 310.403C309.538 311.666 309.921 313.134 309.921 314.808C309.921 315.992 309.728 317.082 309.341 318.076C308.962 319.071 308.394 319.928 307.636 320.646C306.886 321.357 305.946 321.913 304.817 322.316C303.696 322.719 302.398 322.92 300.921 322.92H293.745ZM298.328 321.759C299.315 321.98 300.155 322.091 300.85 322.091C301.758 322.091 302.599 321.925 303.373 321.594C304.154 321.254 304.829 320.776 305.398 320.161C305.966 319.537 306.412 318.783 306.736 317.899C307.059 317.015 307.221 316.024 307.221 314.926C307.221 313.821 307.059 312.826 306.736 311.942C306.42 311.058 305.974 310.308 305.398 309.692C304.829 309.069 304.146 308.591 303.349 308.259C302.559 307.928 301.695 307.762 300.755 307.762C300.4 307.762 300.021 307.794 299.619 307.857C299.216 307.912 298.786 307.995 298.328 308.105V321.759ZM322.427 307.3V306.862H328.111V307.3H327.507C326.875 307.3 326.39 307.565 326.05 308.094C325.885 308.346 325.802 308.915 325.802 309.799V316.312C325.802 317.915 325.64 319.166 325.316 320.066C325.111 320.642 324.819 321.136 324.44 321.546C324.061 321.949 323.623 322.28 323.125 322.541C322.628 322.802 322.079 322.991 321.479 323.109C320.887 323.236 320.267 323.299 319.62 323.299C317.875 323.299 316.545 322.995 315.629 322.387C315.053 322.008 314.607 321.609 314.291 321.191C313.983 320.765 313.754 320.299 313.604 319.794C313.462 319.28 313.379 318.716 313.356 318.1C313.332 317.476 313.32 316.77 313.32 315.98V309.704C313.32 309.207 313.285 308.8 313.213 308.484C313.15 308.169 313.048 307.924 312.906 307.75C312.763 307.576 312.582 307.458 312.361 307.395C312.148 307.332 311.891 307.3 311.591 307.3H310.987V306.862H317.927V307.3H317.311C316.932 307.3 316.628 307.355 316.399 307.466C316.17 307.569 315.996 307.722 315.878 307.928C315.76 308.133 315.681 308.386 315.641 308.686C315.61 308.986 315.594 309.325 315.594 309.704V316.703C315.594 317.098 315.606 317.488 315.629 317.875C315.653 318.262 315.7 318.637 315.771 319C315.842 319.355 315.937 319.695 316.056 320.019C316.182 320.334 316.344 320.626 316.541 320.895C316.849 321.321 317.26 321.661 317.773 321.913C318.294 322.158 318.957 322.28 319.762 322.28C320.283 322.28 320.781 322.221 321.254 322.103C321.736 321.976 322.174 321.807 322.569 321.594C322.971 321.373 323.319 321.116 323.611 320.824C323.903 320.524 324.124 320.196 324.274 319.841C324.582 319.123 324.736 317.911 324.736 316.205V309.704C324.736 308.694 324.625 308.066 324.404 307.821C324.096 307.474 323.639 307.3 323.031 307.3H322.427ZM342.985 306.495L343.352 311.954H342.985C342.74 311.141 342.44 310.442 342.085 309.858C341.737 309.274 341.339 308.796 340.889 308.425C340.439 308.054 339.941 307.782 339.397 307.608C338.852 307.434 338.26 307.347 337.62 307.347C336.547 307.347 335.595 307.612 334.766 308.141C333.937 308.662 333.278 309.467 332.789 310.557C332.52 311.157 332.315 311.84 332.173 312.605C332.031 313.363 331.96 314.216 331.96 315.163C331.96 316.608 332.193 317.867 332.658 318.941C332.895 319.486 333.191 319.963 333.546 320.374C333.91 320.784 334.32 321.128 334.778 321.404C335.236 321.68 335.733 321.89 336.27 322.032C336.815 322.174 337.379 322.245 337.964 322.245C338.627 322.245 339.199 322.178 339.681 322.044C340.162 321.909 340.6 321.704 340.995 321.428C341.39 321.151 341.769 320.804 342.132 320.386C342.503 319.967 342.91 319.478 343.352 318.917L343.719 319.154C343.316 319.865 342.882 320.48 342.416 321.001C341.95 321.523 341.445 321.953 340.9 322.292C340.356 322.632 339.764 322.88 339.124 323.038C338.493 323.204 337.81 323.287 337.075 323.287C334.407 323.287 332.346 322.3 330.894 320.326C329.804 318.858 329.26 317.129 329.26 315.14C329.26 314.184 329.39 313.261 329.65 312.369C329.911 311.469 330.314 310.64 330.858 309.882C331.237 309.345 331.668 308.867 332.149 308.449C332.639 308.022 333.164 307.667 333.724 307.383C334.293 307.091 334.889 306.87 335.512 306.72C336.136 306.57 336.775 306.495 337.431 306.495C338.591 306.495 339.736 306.779 340.865 307.347C341.212 307.529 341.449 307.616 341.575 307.608C341.828 307.608 342.037 307.505 342.203 307.3C342.377 307.087 342.499 306.818 342.57 306.495H342.985ZM358.593 306.862V310.628H358.32C358.257 310.122 358.151 309.696 358.001 309.349C357.858 308.994 357.669 308.709 357.432 308.496C357.195 308.275 356.907 308.117 356.568 308.022C356.228 307.92 355.833 307.869 355.383 307.869H353.122V320.137C353.122 321.124 353.228 321.74 353.441 321.984C353.733 322.316 354.195 322.482 354.827 322.482H355.383V322.92H348.574V322.482H349.143C349.822 322.482 350.303 322.276 350.587 321.866C350.761 321.621 350.848 321.045 350.848 320.137V307.869H348.918C348.428 307.869 348.002 307.904 347.639 307.975C347.276 308.046 346.968 308.18 346.715 308.378C346.462 308.575 346.257 308.855 346.099 309.219C345.941 309.582 345.823 310.051 345.744 310.628H345.294V306.862H358.593Z" fill="#010101"/>
</svg>
